<svg width="941" height="143" viewBox="0 0 941 143" fill="none" xmlns="http://www.w3.org/2000/svg">
<path d="M182.04 18.31L144.52 113.93H154.68L163.55 91.35H218.35L227.22 113.93H237.39L199.97 18.31H182.04ZM167.6 80.43L187.27 30.59L194.39 30.54L214.06 80.43H167.6ZM287.91 26.2C301.22 26.2 312.94 32.26 322.75 44.23L332.5 39.52C321.32 23.1 307.19 15.12 289.4 15.12C275.21 15.12 262.33 20.76 253.14 31.03C245.2 39.96 241 52 241 65.83C241 81.59 246.89 96.33 256.35 104.26C266.62 112.82 277.4 116.81 290.26 116.81C308.06 116.81 320.63 110.07 331.89 94.37L322.73 87.69C313.37 100.01 302.74 105.77 289.41 105.77C266.8 105.77 251.61 89.71 251.61 65.84C251.61 42.5 266.54 26.2 287.91 26.2ZM388.82 26.2C402.13 26.2 413.84 32.26 423.66 44.23L433.4 39.52C422.23 23.1 408.11 15.12 390.31 15.12C376.12 15.12 363.24 20.76 354.05 31.03C346.11 39.95 341.91 51.98 341.91 65.83C341.91 81.59 347.79 96.33 357.25 104.26C367.53 112.82 378.3 116.81 391.16 116.81C408.96 116.81 421.53 110.07 432.79 94.37L423.63 87.69C414.27 100.01 403.64 105.77 390.31 105.77C367.7 105.77 352.51 89.71 352.51 65.84C352.51 42.5 367.44 26.2 388.82 26.2ZM520.6 79.72C520.6 95.63 508.03 105.89 488.56 105.89C468.81 105.89 456.53 95.87 456.53 79.72V18.31H445.82V83.21C445.82 103.41 463 116.97 488.56 116.97C514.13 116.97 531.31 103.41 531.31 83.21V18.31H520.6V79.72ZM547.26 29.22H584.1V113.92H594.82V29.22H631.67V18.31H547.26V29.22ZM724.11 48.03C724.11 29.98 714.25 18.31 698.99 18.31H649.9V113.93H660.61V76.86H677.04L713.92 113.93H730.85L694.35 76.98C694.34 76.97 724.11 80.43 724.11 48.03ZM660.61 65.93V29.22H696.85C706.87 29.22 713.61 36.49 713.61 47.3C713.61 58.62 708.33 65.93 696.96 65.93H660.61ZM791.27 15.13C777.07 15.13 764.15 20.83 754.91 31.19C746.96 40.1 742.76 52.13 742.76 65.98C742.76 80.08 746.93 92.22 754.81 101.08C763.89 111.33 776.79 116.98 791.15 116.98C805.48 116.98 818.46 111.33 827.64 101.07C835.57 92.15 839.78 80.02 839.78 65.98C839.78 52.13 835.57 40.1 827.63 31.17C818.5 20.97 805.25 15.13 791.27 15.13ZM791.16 105.89C768.59 105.89 754.01 90.22 754.01 65.97C754.01 42.18 768.98 26.2 791.27 26.2C813.55 26.2 828.54 42.18 828.54 65.97C828.55 90.23 813.87 105.89 791.16 105.89ZM929.32 18.31V101.51L922.89 93.31L870.45 18.31H854.55V113.93H865.25V29.83L872.78 40.8L924.01 113.92H940.02V18.31H929.32ZM78.08 0H71.27L81.03 63.04C88.07 107.01 52.12 106.32 50.06 106.32H50.05C48 106.32 12.04 107.01 19.09 63.04L28.84 0H22.04L0 114.06H41.97L33.54 142.61H66.57L58.14 114.06H100.11L78.08 0Z" fill="#1A1A1A"/>
</svg>
