<svg width="451" height="205" viewBox="0 0 451 205" fill="none" xmlns="http://www.w3.org/2000/svg">
<path d="M241.797 0H237.715L243.565 37.5738C247.784 63.7813 226.238 63.37 225.003 63.37H224.997C223.768 63.37 202.216 63.7813 206.441 37.5738L212.285 0H208.209L195 67.9833H220.154L215.102 85H234.898L229.846 67.9833H255L241.797 0Z" fill="black"/>
<path fill-rule="evenodd" clip-rule="evenodd" d="M270.327 121C290.945 121 310.338 138.583 310.338 161.226C310.338 176.788 303.141 187.667 296.926 194.121C288.754 202.345 278.136 205 272.284 205C259.355 205 247.52 199.94 239.099 190.331C232.997 183.117 229.222 172.364 229.222 162.62C229.222 151.616 233.247 140.603 242.642 132.379C250.812 125.049 260.328 121 270.205 121H270.327ZM267.155 123.78C259.959 123.78 254.347 126.185 248.855 132.379C242.142 139.718 240.435 150.847 240.435 160.466C240.435 171.854 244.348 183.233 250.934 190.572C258.483 198.921 265.811 201.96 273.98 201.96C288.625 201.96 299.606 190.823 299.606 165.91C299.606 154.772 296.677 143.267 288.496 133.524C283.737 127.963 277.161 123.789 267.276 123.789H267.155V123.78ZM9.66371 153.386C9.66371 144.027 9.66371 135.293 9.29307 130.869C9.05175 128.339 6.62111 126.694 0.0273911 124.924L0.518689 123.789C2.34597 123.789 6.73315 123.664 10.5084 123.154C14.0423 122.904 27.3246 122.269 31.5911 122.269C35.7368 122.269 46.3214 122.645 52.665 125.425C56.5696 127.07 62.4307 131.879 62.4307 139.468C62.4307 145.037 60.9654 149.337 56.4575 152.885C54.417 154.443 52.572 155.473 51.3416 156.16C50.8778 156.419 50.5013 156.629 50.2346 156.801C49.5018 157.185 49.9846 158.07 50.9671 158.195C58.8968 159.59 68.7745 166.803 68.7745 179.568C68.7745 190.957 61.4567 197.795 51.6911 201.201C46.8127 203.096 36.3489 203.23 34.3924 203.23C33.9655 203.23 31.7339 203.167 28.8387 203.085C23.4909 202.935 15.8785 202.72 13.189 202.72C10.1288 202.72 7.0687 202.947 4.60671 203.13C2.94997 203.252 1.56334 203.355 0.630739 203.355C0.3894 203.105 -0.101898 202.47 0.0187718 201.969C0.292141 201.848 0.724173 201.689 1.2255 201.504C2.3048 201.108 3.7055 200.593 4.53526 200.074C4.75189 199.921 4.9674 199.773 5.18019 199.626C7.24467 198.206 9.05441 196.962 9.16379 192.61C9.52579 183.51 9.65508 176.672 9.65508 172.372V153.386H9.66371ZM33.1771 201.085C44.27 201.085 58.4056 194.121 58.4056 180.462C58.4056 174.893 57.061 169.583 52.7943 165.275C48.6399 160.975 39.1588 160.215 33.2978 160.215C29.1518 160.215 20.2654 160.591 19.4121 161.985C18.9294 162.745 18.3174 164.005 18.3174 169.959C18.3174 194.246 18.3174 195.632 20.7567 198.036C23.4458 200.566 28.9104 201.076 33.0564 201.076H33.1771V201.085ZM52.6738 141.998C52.6738 136.554 50.8464 132.764 48.0367 129.724C45.4767 126.819 37.5642 124.799 31.4704 124.799C30.4964 124.799 23.3253 125.049 21.0066 126.194C19.9345 126.815 19.7967 127.068 19.338 127.91L19.3086 127.963C18.938 128.723 18.8087 132.513 18.8087 139.468C18.8087 146.172 18.938 151.866 19.0501 153.761C19.4207 156.676 20.024 157.426 23.0753 157.686C25.0232 157.945 32.0736 158.07 33.7889 158.07C35.375 158.07 43.8907 157.686 46.0886 156.3C50.2431 153.645 52.6738 148.461 52.6738 142.132V141.998ZM157.794 123.905C156.329 124.165 154.743 124.54 153.51 125.3C151.933 126.06 150.829 127.195 150.588 130.109C150.347 132.379 149.976 138.333 149.485 161.36C149.123 173.499 148.399 183.546 142.426 192.396C136.815 200.62 125.704 205 115.698 205C106.923 205 99.1142 201.835 94.227 197.286C86.9092 190.331 85.6939 180.588 85.5646 172.238C85.4439 167.179 85.4439 158.83 85.806 146.432C86.2888 131.495 86.2888 129.099 85.0735 127.07C83.9788 125.684 81.0482 124.54 78.7296 124.039L78.8589 123.53C78.9796 123.02 79.4624 122.77 81.0482 122.77C82.349 122.77 84.3662 122.901 86.3573 123.03C88.2977 123.155 90.2134 123.28 91.4171 123.28C93.5192 123.171 95.5788 123.019 97.4687 122.88C100.073 122.688 102.356 122.52 103.984 122.52C104.587 122.52 104.717 122.52 104.717 122.895C104.717 123.405 104.475 123.905 104.355 123.905C98.2521 125.3 96.9163 126.694 96.1835 129.349C95.6924 131.495 95.3303 135.803 95.2096 142.758C95.1754 144.698 95.1211 147.116 95.0607 149.798L95.0605 149.803C94.9083 156.573 94.7184 165.027 94.7184 171.729C94.7184 183.233 98.5021 190.072 103.622 194.497C108.138 198.421 113.62 199.69 120.455 199.815C132.859 199.939 138.033 192.974 140.511 189.639L140.607 189.509C145.003 183.18 146.201 173.24 146.201 159.715C146.322 144.912 146.201 135.812 145.71 131.879C145.098 126.819 142.055 125.425 136.082 124.674C134.858 124.415 134.737 124.173 134.858 123.914C134.89 123.853 134.921 123.8 134.949 123.75C135.039 123.595 135.108 123.476 135.108 123.28C135.358 122.895 136.332 122.77 137.185 122.77C140.237 123.146 144.141 123.28 146.33 123.28C148.801 123.28 152.681 122.947 155.378 122.716C156.406 122.628 157.262 122.554 157.803 122.52C158.397 122.52 158.397 122.645 158.285 123.029L157.794 123.905ZM223.43 186.022C223.196 185.647 222.826 185.137 222.575 185.137V185.146H222.438C222.206 185.146 222.077 185.28 221.957 185.656C221.222 188.57 219.878 192.485 217.438 195.274C213.905 199.449 208.165 200.209 196.942 200.209C191.693 200.209 187.918 199.833 186.212 199.324C184.376 198.689 184.022 197.554 183.893 195.909C183.652 193.37 183.402 188.311 183.402 169.592V154.289C183.402 142.516 183.652 134.677 184.134 130.753C184.496 126.962 185.479 125.443 192.305 123.798C192.426 123.288 192.193 122.904 191.943 122.529C189.288 122.589 186.635 122.769 184.134 122.938C181.461 123.119 178.962 123.288 176.817 123.288C174.887 123.288 173.227 123.216 171.659 123.148C170.258 123.087 168.93 123.029 167.551 123.029C166.939 123.029 166.697 123.145 166.456 123.405V123.53C166.336 123.78 166.336 124.039 166.697 124.164C173.162 125.934 173.895 126.819 174.015 129.349C174.265 132.138 174.507 138.967 174.507 149.462V176.922C174.507 189.687 174.136 193.996 173.774 195.891C172.922 200.138 169.464 201.298 165.733 202.549L165.594 202.595C165.473 202.846 165.594 203.346 165.844 203.605C166.336 203.731 166.939 203.731 168.154 203.605L168.435 203.576C172.066 203.195 176.686 202.712 180.971 202.712C193.382 202.799 200.643 202.992 205.237 203.113C207.64 203.177 209.313 203.221 210.613 203.221C215.49 203.221 216.837 203.221 218.05 203.096C219.154 202.837 219.646 202.461 219.886 200.942C220.741 195.891 221.834 192.342 223.301 187.917C223.67 186.787 223.55 186.41 223.43 186.027V186.022ZM384.66 127.579C385.876 126.06 386.608 125.425 388.687 125.049L390.996 124.415C391.719 124.29 391.971 124.039 391.848 123.655C391.608 123.279 391.238 122.895 389.892 122.895C389.121 122.895 388.174 122.964 387.078 123.043C385.584 123.151 383.814 123.279 381.843 123.279C379.869 123.279 378.114 123.132 376.495 122.995C375.105 122.878 373.817 122.77 372.578 122.77C371.24 122.77 370.741 123.145 370.499 123.53C370.379 123.905 370.379 124.164 370.991 124.29L373.188 124.79C376.474 125.425 378.791 126.435 377.206 132.004C376.351 134.793 375.138 138.333 370.619 150.097C364.655 166.16 356.846 184.503 354.037 189.562C353.545 190.572 352.813 189.947 352.45 189.187C349.916 183.671 346.046 174.16 342.204 164.717C340.49 160.508 338.785 156.314 337.204 152.492C331.464 138.833 329.393 133.148 328.532 129.984C327.8 127.579 328.412 126.31 332.808 124.54C333.412 124.415 333.781 124.29 333.901 123.78C334.137 123.043 334.03 123.021 333.463 122.906L333.412 122.895C332.254 122.895 331.099 122.973 329.831 123.059C328.292 123.164 326.586 123.279 324.516 123.279C323.258 123.279 321.958 123.214 320.431 123.138C318.249 123.028 315.604 122.895 311.948 122.895C310.604 122.895 310 123.405 310.112 124.164L310.243 124.415C315.732 125.684 316.587 126.819 320.369 135.678C320.927 137.013 321.544 138.476 322.212 140.068L322.214 140.069V140.071C326.937 151.308 334.359 168.967 343.66 193.236C345.722 198.568 347.064 201.746 347.687 203.22C347.876 203.668 347.998 203.96 348.054 204.106C348.426 204.741 348.658 204.991 349.029 204.991C349.401 204.991 349.882 204.732 350.133 204.231C350.769 202.823 351.553 201.395 352.266 200.098L352.268 200.096L352.27 200.091C352.646 199.407 353 198.759 353.305 198.171C354.364 196.105 355.7 193.343 356.303 191.949C361.281 180.508 365.237 170.98 368.693 162.658L368.695 162.656C372.185 154.249 375.166 147.073 378.17 140.398C382.195 131.164 383.687 128.84 384.66 127.579ZM421.404 167.304L420.48 164.759V164.755C416.441 153.622 414.156 147.328 410.183 137.197C409.45 135.678 408.838 135.937 408.346 136.938C407.453 139.183 406.663 141.159 405.941 142.961L405.939 142.966C402.432 151.726 400.581 156.352 396.642 167.68L393.59 175.269C391.762 179.819 387.489 191.207 387.489 195.256C387.377 198.161 388.833 199.556 395.177 201.835C395.418 202.345 395.057 203.096 394.574 203.23C391.816 203.164 389.668 203.027 387.86 202.911C386.226 202.807 384.869 202.72 383.593 202.72C381.733 202.72 379.704 202.895 378.024 203.04C376.841 203.143 375.831 203.23 375.181 203.23C374.448 203.23 374.085 203.105 373.965 202.854C373.836 202.604 373.836 202.094 373.965 201.844C379.085 200.2 379.938 198.939 384.093 189.321C387.263 182.232 401.296 147.316 407.751 130.243C408.967 126.953 409.708 124.933 410.311 123.029C410.44 122.394 410.674 122.019 411.044 121.769C411.536 121.509 412.502 121.009 412.992 121.009H413.123C413.726 121.009 413.975 121.644 414.338 122.779C417.521 133.003 419.864 139.216 423.231 148.138C423.738 149.482 424.267 150.887 424.827 152.376C426.827 157.785 430.181 166.284 433.246 173.9C436.957 174.062 440.707 174.393 444.555 174.911C445.573 175.045 447.124 177.79 446.9 177.763C442.631 177.188 438.484 176.843 434.378 176.704C437.011 183.215 439.255 188.639 439.953 190.197C440.191 190.738 440.417 191.267 440.638 191.782C442.792 196.821 444.405 200.594 450.934 202.094C451.176 202.345 450.685 203.48 450.564 203.48C446.649 203.48 443.692 203.357 441.171 203.251C439.294 203.173 437.659 203.105 436.048 203.105C433.538 203.105 430.789 203.303 428.721 203.452C427.473 203.542 426.472 203.614 425.922 203.614C425.671 203.614 425.431 203.48 425.31 203.23C425.188 202.98 425.188 202.604 425.188 202.22C431.895 200.074 432.144 198.296 430.188 192.226C429.524 190.273 426.657 181.879 424.765 176.744C419.787 176.948 414.774 177.428 409.579 178.138C408.649 178.263 406.744 175.349 407.225 175.287C412.874 174.514 418.305 174.015 423.713 173.845L421.404 167.304Z" fill="black"/>
</svg>
