<?xml version="1.0" encoding="UTF-8" standalone="no"?>
<svg
   width="210"
   height="40"
   viewBox="0 0 210 40"
   fill="none"
   version="1.1"
   id="svg4"
   sodipodi:docname="Bulova logo.svg"
   inkscape:version="1.1 (c68e22c387, 2021-05-23)"
   xmlns:inkscape="http://www.inkscape.org/namespaces/inkscape"
   xmlns:sodipodi="http://sodipodi.sourceforge.net/DTD/sodipodi-0.dtd"
   xmlns="http://www.w3.org/2000/svg"
   xmlns:svg="http://www.w3.org/2000/svg">
  <defs
     id="defs8" />
  <sodipodi:namedview
     id="namedview6"
     pagecolor="#ffffff"
     bordercolor="#666666"
     borderopacity="1.0"
     inkscape:pageshadow="2"
     inkscape:pageopacity="0.0"
     inkscape:pagecheckerboard="0"
     showgrid="false"
     inkscape:zoom="5.9619048"
     inkscape:cx="104.91613"
     inkscape:cy="20.04393"
     inkscape:window-width="1920"
     inkscape:window-height="1001"
     inkscape:window-x="-9"
     inkscape:window-y="-9"
     inkscape:window-maximized="1"
     inkscape:current-layer="svg4" />
  <path
     fill-rule="evenodd"
     clip-rule="evenodd"
     d="M125.873 0C135.473 0 144.503 8.24045 144.503 18.8521C144.503 26.1457 141.152 31.2442 138.258 34.2689C134.453 38.1231 129.509 39.3673 126.784 39.3673C120.764 39.3673 115.253 36.9961 111.332 32.4926C108.491 29.1118 106.733 24.072 106.733 19.5056C106.733 14.3485 108.607 9.18724 112.982 5.33304C116.786 1.89778 121.217 0 125.816 0H125.873ZM124.396 1.30289C121.045 1.30289 118.432 2.42982 115.875 5.33304C112.749 8.7725 111.954 13.9882 111.954 18.496C111.954 23.8332 113.776 29.1663 116.843 32.6057C120.358 36.5186 123.77 37.9429 127.574 37.9429C134.393 37.9429 139.506 32.723 139.506 21.0473C139.506 15.8274 138.142 10.4357 134.333 5.86928C132.117 3.2635 129.055 1.30708 124.452 1.30708H124.396V1.30289ZM4.49973 15.178V15.178C4.49973 10.7917 4.49973 6.69874 4.32715 4.62502C4.21478 3.43944 3.083 2.6686 0.0127542 1.8391L0.241518 1.30706C1.09236 1.30706 3.13517 1.24841 4.89304 1.00961C6.53853 0.892312 12.7232 0.594868 14.7098 0.594868C16.6402 0.594868 21.5687 0.77082 24.5225 2.07371C26.3406 2.84455 29.0697 5.09842 29.0697 8.65518C29.0697 11.2651 28.3874 13.2802 26.2884 14.9434C25.3383 15.6735 24.4792 16.1562 23.9063 16.4781C23.6903 16.5995 23.515 16.698 23.3908 16.7783C23.0496 16.9585 23.2744 17.3732 23.7319 17.4319C27.4242 18.0854 32.0236 21.4662 32.0236 27.4486C32.0236 32.7858 28.6162 35.9907 24.069 37.5868C21.7975 38.475 16.9252 38.5378 16.0142 38.5378C15.8154 38.5378 14.7763 38.5083 13.4282 38.4701H13.4281H13.428C10.9379 38.3995 7.39355 38.299 6.14121 38.299C4.71631 38.299 3.29141 38.4053 2.14503 38.4908H2.14495H2.1449H2.14487L2.14478 38.4908L2.14466 38.4908C1.37323 38.5483 0.727943 38.5965 0.293692 38.5965C0.181317 38.4792 -0.0474467 38.1817 0.00874076 37.9471C0.13603 37.89 0.337198 37.8156 0.570632 37.7292L0.570825 37.7291C1.07338 37.5433 1.7254 37.3021 2.11176 37.059C2.21263 36.9869 2.31298 36.9175 2.41206 36.8489L2.4123 36.8487C3.37359 36.1833 4.21602 35.6002 4.26695 33.5609C4.43551 29.2961 4.49571 26.0912 4.49571 24.0762V15.178H4.49973ZM15.4483 37.5324C20.6135 37.5324 27.1955 34.2689 27.1955 27.8675C27.1955 25.2576 26.5694 22.7691 24.5827 20.7498C22.6483 18.7348 18.2336 18.3787 15.5045 18.3787C13.574 18.3787 9.4362 18.5546 9.03888 19.2081C8.81413 19.5642 8.52917 20.1549 8.52917 22.945C8.52917 34.3275 8.52917 34.9769 9.66496 36.1038C10.9171 37.2894 13.4616 37.5282 15.3921 37.5282H15.4483V37.5324ZM24.5266 9.84076C24.5266 7.28945 23.6757 5.51316 22.3674 4.08879C21.1754 2.72725 17.4911 1.78045 14.6536 1.78045C14.2001 1.78045 10.861 1.89776 9.78135 2.43399C9.28215 2.72531 9.21797 2.84383 9.0044 3.23822L8.99071 3.26348C8.81814 3.61958 8.75794 5.39586 8.75794 8.65518C8.75794 11.7972 8.81814 14.4658 8.87031 15.3539C9.04289 16.7197 9.32383 17.0716 10.7446 17.1931C11.6516 17.3146 14.9345 17.3732 15.7332 17.3732C16.4717 17.3732 20.4369 17.1931 21.4603 16.5437C23.3948 15.2995 24.5266 12.8697 24.5266 9.9036V9.84076ZM73.4739 1.3616C72.7916 1.48309 72.0531 1.65905 71.4792 2.01514C70.7448 2.37124 70.231 2.90328 70.1187 4.26901C70.0063 5.33311 69.8337 8.12321 69.605 18.915C69.4364 24.6041 69.0993 29.3129 66.318 33.4604C63.7053 37.3146 58.532 39.3674 53.8725 39.3674C49.7868 39.3674 46.1507 37.8843 43.8751 35.752C40.4677 32.4927 39.9018 27.9263 39.8416 24.0134C39.7854 21.6422 39.7854 17.7294 39.954 11.9188C40.1788 4.91836 40.1788 3.79561 39.6129 2.84463C39.1032 2.19528 37.7386 1.65905 36.659 1.42444L36.7192 1.18565C36.7754 0.946856 37.0002 0.829555 37.7386 0.829555C38.3443 0.829555 39.2836 0.890804 40.2107 0.951263C41.1142 1.01018 42.0062 1.06835 42.5667 1.06835C43.5455 1.01726 44.5045 0.946174 45.3845 0.88094C46.5972 0.791039 47.6601 0.712253 48.4183 0.712253C48.6992 0.712253 48.7594 0.712253 48.7594 0.888205C48.7594 1.127 48.647 1.3616 48.5908 1.3616C45.7493 2.01514 45.1273 2.66868 44.7861 3.91292C44.5574 4.91836 44.3888 6.93763 44.3326 10.1969C44.3167 11.1063 44.2914 12.2395 44.2633 13.4966L44.2632 13.4988L44.2632 13.4992V13.4994C44.1923 16.6724 44.1039 20.6338 44.1039 23.7746C44.1039 29.1663 45.8657 32.3712 48.2497 34.4449C50.3527 36.284 52.9052 36.8789 56.0879 36.9376C61.8633 36.9954 64.2725 33.7313 65.4262 32.1681L65.4712 32.1072C67.518 29.1412 68.0759 24.4826 68.0759 18.1441C68.132 11.2066 68.0759 6.94182 67.8471 5.0985C67.5621 2.72733 66.1454 2.07379 63.3641 1.72189C62.7942 1.60039 62.738 1.48728 62.7942 1.36579C62.8089 1.33726 62.8233 1.31219 62.8367 1.28885L62.8367 1.2888C62.8785 1.21621 62.9106 1.16026 62.9106 1.06835C63.027 0.888205 63.4805 0.829555 63.8778 0.829555C65.2986 1.00551 67.1167 1.06835 68.1361 1.06835C69.2865 1.06835 71.0932 0.912481 72.3487 0.804161C72.8276 0.762845 73.2263 0.728447 73.4779 0.712253C73.7548 0.712253 73.7548 0.770904 73.7026 0.951046L73.4739 1.3616ZM104.036 30.4734C103.927 30.2974 103.755 30.0586 103.638 30.0586V30.0628H103.574C103.466 30.0628 103.406 30.1256 103.35 30.3016C103.008 31.6673 102.382 33.5023 101.246 34.8093C99.601 36.7658 96.9281 37.1219 91.7026 37.1219C89.2585 37.1219 87.5006 36.9459 86.706 36.7071C85.8511 36.4097 85.6866 35.8776 85.6264 35.1068C85.514 33.917 85.3976 31.5458 85.3976 22.7733V15.6012C85.3976 10.0838 85.514 6.40974 85.7387 4.57061C85.9073 2.79433 86.3648 2.08214 89.5434 1.3113C89.5996 1.07251 89.4913 0.892366 89.3749 0.716414C88.1386 0.744775 86.9033 0.828975 85.7384 0.908378C84.4942 0.993179 83.3304 1.07251 82.3314 1.07251C81.433 1.07251 80.6599 1.03865 79.93 1.00668C79.2773 0.978091 78.6592 0.951017 78.017 0.951017C77.732 0.951017 77.6196 1.00548 77.5073 1.12697V1.18562C77.4511 1.30292 77.4511 1.42441 77.6196 1.48306C80.6297 2.31256 80.9708 2.7273 81.027 3.91289C81.1434 5.21996 81.2558 8.42063 81.2558 13.3389V26.2086C81.2558 32.191 81.0832 34.2103 80.9146 35.0984C80.5182 37.0888 78.9079 37.6323 77.1705 38.2186L77.1059 38.2404C77.0497 38.3577 77.1059 38.5923 77.2223 38.7138C77.4511 38.7725 77.732 38.7725 78.2979 38.7138L78.4287 38.7C80.1195 38.5217 82.2708 38.2949 84.2658 38.2949C90.0448 38.3361 93.4257 38.4262 95.5649 38.4831C96.6837 38.5129 97.4629 38.5337 98.0679 38.5337C100.339 38.5337 100.966 38.5337 101.531 38.475C102.045 38.3535 102.274 38.1776 102.386 37.4654C102.784 35.0984 103.293 33.4352 103.976 31.3615C104.148 30.8315 104.092 30.6548 104.036 30.4754L104.036 30.4734ZM179.11 3.08338C179.676 2.37119 180.017 2.07375 180.985 1.8978L182.06 1.60035C182.397 1.5417 182.514 1.4244 182.457 1.24426C182.345 1.0683 182.173 0.888162 181.546 0.888162C181.187 0.888162 180.746 0.920322 180.236 0.957466C179.54 1.00823 178.716 1.0683 177.798 1.0683C176.879 1.0683 176.062 0.999044 175.308 0.935124C174.661 0.880357 174.061 0.829512 173.484 0.829512C172.861 0.829512 172.629 1.00546 172.516 1.18561C172.46 1.36156 172.46 1.48305 172.745 1.5417L173.768 1.7763C175.298 2.07375 176.377 2.54714 175.639 5.15711C175.241 6.46419 174.676 8.12317 172.572 13.6364C169.795 21.1646 166.159 29.7612 164.851 32.1323C164.622 32.6057 164.281 32.3125 164.112 31.9564C162.932 29.3714 161.13 24.9139 159.341 20.4882C158.543 18.516 157.749 16.5502 157.013 14.7591C154.34 8.35777 153.376 5.69335 152.975 4.21032C152.634 3.08338 152.919 2.48849 154.966 1.659C155.247 1.60035 155.419 1.5417 155.475 1.30291C155.585 0.957293 155.535 0.947122 155.271 0.893199L155.247 0.888162C154.708 0.888162 154.17 0.924899 153.58 0.965193C152.863 1.01413 152.069 1.0683 151.105 1.0683C150.519 1.0683 149.914 1.03773 149.203 1.00176C148.187 0.950444 146.955 0.888162 145.253 0.888162C144.627 0.888162 144.346 1.12696 144.398 1.48305L144.459 1.60035C147.015 2.19524 147.413 2.72729 149.174 6.87893C149.434 7.50448 149.721 8.19024 150.032 8.93647L150.033 8.93675L150.033 8.93804C152.232 14.204 155.688 22.4803 160.019 33.8541C160.979 36.353 161.604 37.8423 161.894 38.5333L161.894 38.5338C161.982 38.7438 162.039 38.88 162.065 38.9484C162.238 39.2458 162.346 39.3631 162.519 39.3631C162.692 39.3631 162.916 39.2417 163.033 39.0071C163.329 38.3469 163.694 37.6777 164.026 37.0699L164.027 37.0691L164.028 37.0666C164.203 36.7461 164.368 36.4427 164.51 36.1667C165.003 35.1989 165.625 33.9044 165.906 33.2509C168.224 27.889 170.066 23.4237 171.675 19.5236L171.675 19.5235L171.676 19.5226C173.301 15.5826 174.689 12.2193 176.088 9.09091C177.962 4.76331 178.657 3.67408 179.11 3.08338ZM196.219 21.7008L195.789 20.5082L195.789 20.5063C193.908 15.2885 192.844 12.3389 190.994 7.59107C190.653 6.87888 190.368 7.00037 190.139 7.46958C189.723 8.52174 189.355 9.44784 189.019 10.292L189.018 10.2948C187.385 14.4 186.523 16.5681 184.689 21.8768L183.268 25.4335C182.417 27.5659 180.427 32.9031 180.427 34.8009C180.375 36.1624 181.053 36.816 184.007 37.8843C184.119 38.123 183.951 38.4749 183.726 38.5378C182.442 38.507 181.442 38.4427 180.6 38.3885C179.839 38.3396 179.207 38.299 178.613 38.299C177.747 38.299 176.802 38.3811 176.02 38.449C175.469 38.4969 174.999 38.5378 174.696 38.5378C174.355 38.5378 174.186 38.4791 174.13 38.3618C174.07 38.2445 174.07 38.0057 174.13 37.8884C176.514 37.1176 176.911 36.5269 178.846 32.0192C180.322 28.697 186.856 12.3334 189.862 4.33176C190.428 2.79008 190.773 1.84328 191.054 0.950954C191.114 0.65351 191.223 0.477557 191.395 0.360255C191.624 0.238764 192.074 0.00416076 192.302 0.00416076H192.363C192.644 0.00416076 192.76 0.301605 192.929 0.833652C194.411 5.62534 195.502 8.53726 197.07 12.7187L197.07 12.7189C197.306 13.3484 197.552 14.0067 197.813 14.7046C198.744 17.2397 200.306 21.2227 201.733 24.7919C203.461 24.8679 205.207 25.0231 206.999 25.266C207.473 25.3288 208.195 26.615 208.091 26.6024C206.103 26.3329 204.172 26.1713 202.26 26.1062C203.486 29.1576 204.531 31.6998 204.856 32.4297C204.967 32.6833 205.072 32.9312 205.175 33.1728C206.178 35.5343 206.929 37.3027 209.969 38.0057C210.082 38.123 209.853 38.6551 209.797 38.6551C207.974 38.6551 206.597 38.5972 205.423 38.5479H205.423C204.549 38.5111 203.788 38.4791 203.038 38.4791C201.869 38.4791 200.589 38.572 199.626 38.6419C199.045 38.6841 198.579 38.7179 198.323 38.7179C198.206 38.7179 198.094 38.6551 198.038 38.5378C197.981 38.4205 197.981 38.2445 197.981 38.0644C201.104 37.0589 201.22 36.2253 200.309 33.3807C200 32.4655 198.665 28.5315 197.784 26.1248C195.466 26.2205 193.132 26.4453 190.713 26.7783C190.28 26.837 189.393 25.4713 189.617 25.4419C192.247 25.08 194.776 24.8458 197.294 24.7664L196.219 21.7008Z"
     fill="white"
     id="path2"
     style="fill:#000000" />
</svg>
