<svg id="Layer_1" data-name="Layer 1" xmlns="http://www.w3.org/2000/svg" viewBox="0 0 158.85 82.42"><title>Orient Watch logo - Brandlogos.net</title><path d="M384.9,418.78v-3.24c3,0,4-.09,4-2.12V396.66c0-2-1-2.65-4-2.65v-3.22h13.16V394c-3,0-4,.61-4,2.65v16.76c0,2,1,2.12,4,2.12v3.24Z" transform="translate(-326.53 -337.15)"/><path d="M424.26,407.51c0,5.27-1.52,8-8.75,8h-5.64v-9.34s3.31,0,4.19,0c3.33,0,3.13,1.61,3.13,5.24h2.62V397.66h-2.62c0,3.63.2,5.27-3.13,5.23h-4.19V394h5.64c7.23,0,8.77,2.77,8.75,8h2.84l0-11.26H401V394c3,0,4.29.65,4.29,2.69v16.75c0,2-1.28,2.12-4.29,2.12v3.21h26.1l0-11.26Z" transform="translate(-326.53 -337.15)"/><path d="M447.66,390.79V394c2.88,0,4.38.44,4.38,3.09l0,11.61h-.16L439,390.78h-9.32V394c3.24,0,4.24.65,4.24,2.68v16.52c0,2-1,2.34-4.07,2.34v3.23h12.8v-3.23c-3.87,0-4.87-.31-4.87-2.34V398.7h.17L452,418.78h3.56V396.69c0-2,1-2.68,4.24-2.68v-3.22Z" transform="translate(-326.53 -337.15)"/><path d="M474.6,390.79H461.73l.05,11.27h2.54c.37-5.19,2.57-7.83,7.09-7.83V413c0,2-1.43,2.57-5.68,2.57v3.23h15.63v-3.23c-4.26,0-5.67-.53-5.67-2.57V394.23c4.52,0,6.71,2.64,7.08,7.83h2.55l0-11.27Z" transform="translate(-326.53 -337.15)"/><path d="M341.24,390a14.78,14.78,0,1,0,14.71,14.78A15,15,0,0,0,341.24,390m0,24.88c-4.78,0-8.64-4.63-8.64-10.33s3.87-10.33,8.64-10.33,8.65,4.63,8.65,10.33S346,414.9,341.24,414.9" transform="translate(-326.53 -337.15)"/><path d="M365,394h3.91c2.81,0,5.6.93,5.6,4.31s-1.43,4.56-5.6,4.57H365Zm17.28,21.5a3.6,3.6,0,0,1-3.62-3.24c-.41-2.88-1.44-7-4.68-7v-.21c4.56-.08,6.63-3.45,6.45-6.92-.22-4.25-3.5-7.38-10.42-7.38H355.74V394c3.7,0,4.63.46,4.7,3v16.42c0,2-1.69,2.12-4.7,2.12v3.21h13.89v-3.21c-2.86,0-4.54.18-4.65-2.22v-7.06s2.55,0,4.22,0c3.41.1,4.58,3.06,4.58,6.74v5.7h9.63v-3.25s-.44,0-1.15,0" transform="translate(-326.53 -337.15)"/><path d="M445.84,370.4a9,9,0,0,1-.66-1.68,8.76,8.76,0,0,0-.87-2.07,6.84,6.84,0,0,0,1-3.73c0-.2,0-.41,0-.61l-.17-2.93,4.27,2-.54-1.7c-.57-1.79-1.72-5-1.86-5.42a3.65,3.65,0,0,0-1.53-2.1,3.29,3.29,0,0,0-2.33-.47,2.76,2.76,0,0,0-1.83,1.22,3.73,3.73,0,0,0-.54,2,5.3,5.3,0,0,0,0,.58h0v0c.07.42.16.92.26,1.5.23,1.21.51,2.69.64,4.1a12.9,12.9,0,0,1-2.63-4l.9-.47-1.72-3.79,1.26-1.17-.45-.61L436,347l1.49-1.89-2.18,0-6-.09h-.17l-.53,1-4.38-.11.18.91a5.78,5.78,0,0,0,.67,1.83c0,.12-.07.82-.11,1.28a7.78,7.78,0,0,0-1.25-.51,5.7,5.7,0,0,0-3.46-.06v-.43l2.72-6.11a1.65,1.65,0,1,0-1.48-.91c-1.38,1.93-3,1.79-4.43,1.48h0a3.33,3.33,0,0,1-2.59-2.13,6.07,6.07,0,0,1-.31-.94,1.64,1.64,0,1,0-2.32-1.49,1.66,1.66,0,0,0,.66,1.32,5.23,5.23,0,0,1-9.23,0,1.65,1.65,0,1,0-1.65.23,5.17,5.17,0,0,1-.3.92,3.33,3.33,0,0,1-2.59,2.13h0c-1.44.31-3.08.45-4.46-1.53a1.6,1.6,0,0,0,.16-.7,1.65,1.65,0,1,0-1.65,1.65h0l2.66,6v.58a5.69,5.69,0,0,0-3.51,0,7.94,7.94,0,0,0-1.25.51c0-.47-.1-1.16-.1-1.28a6,6,0,0,0,.67-1.83l.18-.91L387,346l-.53-1h-.17l-6.05.09-2.17,0,1.49,1.89-3,4.21-.45.61,1.26,1.17-1.72,3.79.9.47a12.78,12.78,0,0,1-2.64,4c.13-1.42.41-2.89.63-4.1.11-.58.2-1.08.27-1.5v0h0c0-.2,0-.39,0-.58a3.7,3.7,0,0,0-.54-2,2.74,2.74,0,0,0-1.82-1.22,3.29,3.29,0,0,0-2.34.47,3.66,3.66,0,0,0-1.53,2.1c-.13.39-1.28,3.62-1.86,5.42l-.54,1.7,4.27-2c0,.7-.17,2.93-.17,2.93,0,.21,0,.41,0,.61a6.85,6.85,0,0,0,1,3.73,8.55,8.55,0,0,0-.87,2.07,9.47,9.47,0,0,1-.65,1.68c-1.19,2.1-2.6,2.09-2.66,2.08h-.44l.16.41.22.54a16.33,16.33,0,0,1,.67,4.58,2.24,2.24,0,0,0,1.2,2.09,4.59,4.59,0,0,0,2,.39h4.69l0-.81c-.07-1.33-1.24-2-2.18-2.57a4.4,4.4,0,0,1-1.23-.9l0,0,0,0a1.13,1.13,0,0,1-.24-.75,1.22,1.22,0,0,1,0-.19c.07-.37.32-.47,1-.72l.31-.11.29-.11c1.72-.64,4.3-1.6,5.94-3.94a1.93,1.93,0,0,1,1.21,1.08,1.27,1.27,0,0,1,0,.3,3.49,3.49,0,0,1-1.09,2.1l-.88,1L380,375c2.58.62,3.19,4.61,3.2,4.65l.12.78H390v-.91h0a4.63,4.63,0,0,0-2.31-3.78,3.84,3.84,0,0,1-1.31-1.35,1.73,1.73,0,0,1-.17-.67c0-.5.37-.88,1.08-1.49.18-.16.36-.32.54-.48l0,0,0,0a3.24,3.24,0,0,0,.9-2.1,2.43,2.43,0,0,0,0-.34,3,3,0,0,0-1.47-2.06,1.54,1.54,0,0,1-.42-1,.9.9,0,0,1,.07-.36c.21-.49.87-.76,1.76-.7l.28,0h0l.2,0h0a10.58,10.58,0,0,1,6.4,2.13v3.87a4.86,4.86,0,0,0,1.53,4,7.44,7.44,0,0,0,3.25,1.26,16.12,16.12,0,0,1,2.07.56h0a11.23,11.23,0,0,1,4.83,3.55l.61.82.61-.82a11.26,11.26,0,0,1,4.83-3.55h0a16,16,0,0,1,2.06-.56,7.42,7.42,0,0,0,3.25-1.26,4.86,4.86,0,0,0,1.53-4v-4a10.61,10.61,0,0,1,6.23-2h0l.2,0h0l.29,0c.88-.05,1.54.21,1.75.7a.85.85,0,0,1,.07.36,1.56,1.56,0,0,1-.42,1,3,3,0,0,0-1.47,2.06,2.58,2.58,0,0,0,0,.34,3.25,3.25,0,0,0,.9,2.1l0,0,0,0c.17.17.36.33.54.48.72.62,1.08,1,1.08,1.49a1.69,1.69,0,0,1-.17.67,3.86,3.86,0,0,1-1.31,1.35,4.64,4.64,0,0,0-2.31,3.78h0v.91h6.7l.13-.78s.62-4,3.19-4.65l1.27-.31-.88-1a3.49,3.49,0,0,1-1.09-2.1,1.22,1.22,0,0,1,0-.3,1.91,1.91,0,0,1,1.21-1.08c1.64,2.34,4.22,3.3,5.94,3.94l.3.11.3.11c.69.25.93.35,1,.72a1,1,0,0,1,0,.19,1.13,1.13,0,0,1-.24.75l0,0,0,0a4.42,4.42,0,0,1-1.22.9c-.94.55-2.11,1.24-2.17,2.57l0,.81h4.69a4.62,4.62,0,0,0,2-.39,2.24,2.24,0,0,0,1.2-2.09,16.09,16.09,0,0,1,.68-4.58l.22-.54.16-.41h-.43c-.06,0-1.47,0-2.65-2.08m-2.52-17.46a2.19,2.19,0,0,1,2.42,1.7v0s.86,2.42,1.49,4.31l-1.63-.77c-.09-.39-.7-2.85-.7-2.85v0c-.26-.81-.79-1.27-1.31-1.13-.24.06-.78.35-.51,1.6s.84,5.38.9,6.54a6,6,0,0,1-.7,3.53c-.23-.23-.46-.46-.68-.69a7,7,0,0,0,.39-2.56,33.26,33.26,0,0,0-.73-5.79c-.1-.56-.19-1-.25-1.45a3.5,3.5,0,0,1,0-.45c0-1.11.48-1.84,1.33-2m-5.76-1.35-.62.59-2.65-3.51.47-.59c.68.83,2.41,3,2.8,3.51m-7.33,3.3L432,356.5l.62-1.82,1.79,1.54.72-1.84,1.47.61.85,3.32L435,357.05s-.41,1.5-.63,2.28c-.61-.72-2-2.24-2-2.24l-1.25,2.19-1.17-1.92-1.84,1.72.1-1.34Zm-1.7.81s.23-1.71.25-1.92l.9,0Zm1.95-1.95a4.33,4.33,0,0,0,1.3-.54,2.51,2.51,0,0,0,1.15-2.08l.68,0,1.21.05,1.79,2.43h0l-2.06-.79-.58,1.66-1.72-1.39-.69,1.64s-.81-.7-1.08-1m-2-6.57s0,.05,0,.08a.48.48,0,0,0,.48.47h1.56a.47.47,0,0,0,0-.95h-1l.31-.57,4.71.07-1,1.34,0,0-.56.57,1.29,1.76-2-.08-.5,0v.51a2.32,2.32,0,0,1-.45,1.71c-.45.42-1.49.57-3.16.45h-.19a13,13,0,0,0-1.52-1.35h2.74a.7.7,0,1,0,0-1.4h-2.73l0-.49h.28v-.9h-.41a3.5,3.5,0,0,1-.6-1.22l2.77.07m-8.2,3.79a4,4,0,0,1,3-.1,9.49,9.49,0,0,1,4,2.73c0,.11-.07,1-.12,1.64a7.51,7.51,0,0,0-4.29-3.27,4.1,4.1,0,0,0-2.58.31V351Zm-.06,3.16,0,0a2.69,2.69,0,0,1,2.26-.6c1,.21,2.65,1.14,4.41,4.36,0,.16-.16,2.16-.16,2.19,0,.26-.43.69-1.2,1a6,6,0,0,1-5.34-.39Zm-23.57-4.47H419v1.46H396.64Zm-1.06,4.6v6.3a6,6,0,0,1-5.51.51c-.77-.34-1.17-.77-1.21-1,0,0-.15-2-.16-2.19,1.75-3.22,3.36-4.15,4.41-4.36a2.7,2.7,0,0,1,2.26.6Zm-3.21-3.4a4,4,0,0,1,3,.1l.07,0v1.3a4.08,4.08,0,0,0-2.62-.33,7.54,7.54,0,0,0-4.3,3.27c0-.64-.11-1.53-.12-1.64a9.44,9.44,0,0,1,4-2.73m-6.57-4.65.31.57h-1a.47.47,0,0,0,0,.95h1.56a.47.47,0,0,0,.48-.47.67.67,0,0,0,0-.08l2.78-.07a3.42,3.42,0,0,1-.61,1.22h-.4v.9h.28l0,.49H386.5a.7.7,0,1,0,0,1.4h2.74a12.66,12.66,0,0,0-1.52,1.35h-.19c-1.68.12-2.71,0-3.17-.45a2.29,2.29,0,0,1-.44-1.71v-.51l-.51,0-2,.08,1.29-1.76-.56-.57,0,0-1-1.34,4.71-.07M379,355l1.48-.61.72,1.84,1.8-1.54.63,1.82,1.76-1.61,2,2.86s.07,1,.1,1.34l-1.84-1.72-1.17,1.92-1.26-2.19s-1.36,1.52-2,2.24c-.22-.78-.64-2.28-.64-2.28l-2.48,1.26Zm0-1.35h0s1.65-2.23,1.79-2.43l1.21-.05.68,0a2.87,2.87,0,0,0,.7,1.72,2.9,2.9,0,0,0,.44.36,4.32,4.32,0,0,0,1.3.54c-.26.31-1.07,1-1.07,1l-.69-1.64-1.73,1.39-.58-1.66Zm6.93.17.91,0c0,.21.24,1.92.24,1.92Zm-5.07-5.73.47.59-2.65,3.51-.62-.59c.4-.54,2.14-2.68,2.81-3.51m-10.15,7.26v0l-.71,2.85-1.63.77c.63-1.88,1.48-4.28,1.49-4.31v0a2.19,2.19,0,0,1,2.42-1.7c.86.16,1.33.9,1.33,2a4.12,4.12,0,0,1,0,.45c-.06.4-.15.89-.25,1.45a34,34,0,0,0-.73,5.79,7,7,0,0,0,.4,2.56c-.22.23-.45.47-.69.69a6.07,6.07,0,0,1-.69-3.53c.06-1.17.59-5.14.9-6.54s-.27-1.54-.51-1.6c-.52-.14-1,.31-1.31,1.13m16.51,14.17a.54.54,0,0,1,0,.12,1.79,1.79,0,0,1-.5,1.06c-.13.13-.28.25-.45.4a5.3,5.3,0,0,0-1.32,1.47,2.58,2.58,0,0,0-.3,1.19,3.23,3.23,0,0,0,.3,1.3,5,5,0,0,0,1.79,2,3.57,3.57,0,0,1,1.46,1.9H384.6a10.69,10.69,0,0,0-.89-2.45,5.8,5.8,0,0,0-2.3-2.52,4.08,4.08,0,0,0,.81-2.28,2.6,2.6,0,0,0-.09-.71,3.18,3.18,0,0,0-1.93-2c.14-.34.3-.77.38-1a8.7,8.7,0,0,1,5.77.52l.12.08a1.55,1.55,0,0,1,.77,1m2.1-5.83c-1.51-.15-3.57-.17-4.71-1.31l-.87-.83-.46,1.14a2.11,2.11,0,0,1-1.12,1,3.9,3.9,0,0,0-2.8,2.74l0,0v.05a7,7,0,0,1-2.75,4.49,13.77,13.77,0,0,1-3.92,1.87l-.14,0c-.75.25-2,.67-2.18,2a2.88,2.88,0,0,0,0,.44,2.65,2.65,0,0,0,.63,1.77,5.58,5.58,0,0,0,1.66,1.29c.27.16.56.33.79.5H371c-1.53,0-1.65-.41-1.66-1a20.23,20.23,0,0,0-.53-4.33,5.87,5.87,0,0,0,2.37-2.49h0a10.69,10.69,0,0,0,.77-2,5.91,5.91,0,0,1,.94-2,20.19,20.19,0,0,0,5-7.26l2.12-1.16.75,2.57,2.27-2.42,1.44,2.14,1.41-1.92,1.61,1.68a3.51,3.51,0,0,0,2,1.61,7.49,7.49,0,0,0,3.39.57,7.94,7.94,0,0,0,2.74-.62v3.15a12.15,12.15,0,0,0-6.26-1.8M415.1,375a15.84,15.84,0,0,0-2.26.61A12.3,12.3,0,0,0,407.9,379a12.33,12.33,0,0,0-4.95-3.36,15.71,15.71,0,0,0-2.26-.61c-2.24-.5-3.6-.8-3.6-3.82v-18h21.6v13.22l-.11.09.11.14v4.58c0,3-1.35,3.32-3.6,3.82M433.5,371a2.72,2.72,0,0,0-.09.71,4.11,4.11,0,0,0,.81,2.28,5.84,5.84,0,0,0-2.3,2.52,11,11,0,0,0-.89,2.45h-3.62a3.55,3.55,0,0,1,1.46-1.9,5,5,0,0,0,1.8-2,3.26,3.26,0,0,0,.29-1.3,2.58,2.58,0,0,0-.3-1.19,5.34,5.34,0,0,0-1.32-1.47l-.45-.4a1.81,1.81,0,0,1-.5-1.06.69.69,0,0,1,0-.12,1.56,1.56,0,0,1,.76-1l.13-.08a8.7,8.7,0,0,1,5.76-.52c.07.21.23.64.37,1a3.19,3.19,0,0,0-1.93,2m12.82,7c0,.55-.12.92-1.65,1h-2.46a8.7,8.7,0,0,1,.79-.5,5.56,5.56,0,0,0,1.67-1.29,2.77,2.77,0,0,0,.6-2.21c-.17-1.33-1.43-1.75-2.18-2l-.14,0A13.77,13.77,0,0,1,439,371a7,7,0,0,1-2.75-4.49v-.05l0,0a3.91,3.91,0,0,0-2.8-2.74,2.1,2.1,0,0,1-1.11-1l-.46-1.14-.87.83c-1.14,1.14-3.21,1.16-4.71,1.31a12.24,12.24,0,0,0-6.09,1.69v-3a8.16,8.16,0,0,0,2.57.55,7.49,7.49,0,0,0,3.39-.57,3.52,3.52,0,0,0,2-1.61l1.6-1.68,1.42,1.92,1.43-2.14,2.27,2.42.76-2.57,2.11,1.16a20.21,20.21,0,0,0,5,7.26,5.91,5.91,0,0,1,.94,2,10.53,10.53,0,0,0,.78,2h0a5.89,5.89,0,0,0,2.37,2.49,20.42,20.42,0,0,0-.53,4.33" transform="translate(-326.53 -337.15)"/><path d="M415.25,358c-1.73,0-6-2.39-7.33-3.55,0,0-4.16,2.85-7.42,3.45a1.74,1.74,0,0,1,.83,1.34l0,10.39s0,1-.81,1.23c1.74,0,6,2.38,7.34,3.56,0,0,4.16-2.85,7.41-3.45a1.76,1.76,0,0,1-.83-1.34l0-10.39s0-1,.8-1.23M411,371.8l-6.32-3.41,0-11.34,6.32,3.41Z" transform="translate(-326.53 -337.15)" style="fill:#df0615"/></svg>