<svg xmlns="http://www.w3.org/2000/svg" viewBox="0 0 330.97067 139.89502">
  <style type="text/css">
    .g1{fill: #b7ada5;}
    .g2{fill: #3c3c3b;}
  </style>
  <g transform="matrix(1.3333333,0,0,-1.3333333,-212.46666,655.38665)">
    <g>
      <path class="g1"
        d="m 280.2437,491.5401 c -2.588,-2.726 -3.575,-6.304 -3.567,-8.588 0,-5.597 3.719,-8.523 1.469,-12.552 l -0.269,0.108 c 1.054,3.35 -2.215,8.275 -5.649,8.358 -4.138,0.083 -6.789,-3.14 -6.789,-6.634 0,-1.821 1.87,-5.554 6.021,-5.26 -3.124,1.677 -3.2,5.718 -1.142,7.013 3.722,2.344 6.707,-2.058 6.63,-6.022 2.533,0.961 6.995,7.928 6.995,14.855 0,2.284 -1.112,5.996 -3.699,8.722" />
      <path class="g1"
        d="m 280.2284,455.5393 c 1.772,1.138 3.212,4.933 3.738,7.19 -3.643,4.742 -1.252,10.636 3.926,11.722 4.514,0.947 7.63,-4.054 3.209,-7.331 2.744,-0.915 6.346,2.018 6.276,5.379 -0.097,4.617 -3.719,7.099 -7.895,6.182 -4.202,-0.898 -7.938,-6.535 -9.621,-11.84 -1.095,-3.453 -1.271,-7.406 0.367,-11.302" />
    </g>
    <g>
      <path class="g2"
        d="m 250.3085,416.5509 c -1.19,-0.793 -9.419,-7.238 -24.199,3.185 1.768,0.57 3.107,1.586 4.371,1.835 1.674,0.307 3.43,1.077 4.876,1.876 1.454,0.803 2.711,1.811 3.77,3.022 1.057,1.212 1.893,2.596 2.506,4.152 0.612,1.556 0.918,3.239 0.918,5.051 0,1.836 -0.32,3.597 -0.956,5.28 -0.638,1.684 -1.557,3.169 -2.756,4.458 -1.199,1.287 -2.658,2.315 -4.38,3.079 -1.722,0.766 -3.668,1.148 -5.836,1.148 -1.836,0 -3.59,-0.28 -5.261,-0.841 -1.671,-0.561 -3.182,-1.416 -4.533,-2.564 -3.317,-2.832 -4.975,-6.403 -4.975,-10.713 0,-1.812 0.299,-3.482 0.899,-5.013 0.599,-1.53 1.416,-2.889 2.448,-4.075 1.035,-1.185 2.239,-2.181 3.617,-2.984 1.374,-0.803 2.83,-1.545 4.384,-1.876 -2.246,-2.207 -12.317,-1.658 -14.047,-7.882 l 0.348,-0.165 c 0.991,1.917 6.23,5.519 13.219,2.346 15.244,-7.563 22.811,-2.194 25.587,0.185 z m -29.108,9.517 c -0.842,1.249 -1.487,2.683 -1.933,4.304 -0.447,1.62 -0.67,3.297 -0.67,5.032 0,1.658 0.185,3.297 0.555,4.917 0.37,1.619 0.944,3.067 1.722,4.343 0.777,1.274 1.773,2.315 2.985,3.118 1.211,0.803 2.646,1.205 4.304,1.205 1.632,0 3.048,-0.402 4.248,-1.205 1.198,-0.803 2.2,-1.85 3.003,-3.138 0.804,-1.288 1.403,-2.723 1.799,-4.305 0.395,-1.581 0.593,-3.151 0.593,-4.706 0,-1.531 -0.172,-3.105 -0.517,-4.724 -0.344,-1.621 -0.893,-3.094 -1.645,-4.42 -0.753,-1.327 -1.735,-2.418 -2.947,-3.271 -1.211,-0.856 -2.685,-1.283 -4.419,-1.283 -1.48,0 -2.818,0.376 -4.018,1.129 -1.198,0.752 -2.219,1.753 -3.06,3.004" />
      <path class="g2"
        d="m 251.2505,433.0133 c 0.013,-0.549 0.019,-1.129 0.019,-1.741 0.025,-1.352 0.229,-2.583 0.613,-3.693 0.382,-1.109 0.941,-1.977 1.631,-2.756 0.688,-0.778 1.53,-1.377 2.525,-1.798 0.994,-0.421 2.13,-0.631 3.405,-0.631 1.454,0 2.684,0.166 3.692,0.497 1.008,0.332 1.85,0.791 2.526,1.378 0.675,0.586 1.211,1.262 1.607,2.027 0.395,0.766 0.729,1.574 0.88,2.45 0.406,2.358 0.469,16.032 0.057,17.294 -0.255,0.715 -0.695,1.295 -1.319,1.741 -0.626,0.446 -1.55,0.76 -2.774,0.938 v 0.382 h 9.488 v -0.382 c -0.944,-0.128 -1.69,-0.37 -2.238,-0.727 -0.549,-0.358 -0.976,-0.905 -1.282,-1.646 -0.438,-1.154 -0.753,-13.118 -0.861,-15.879 -0.029,-0.74 -0.159,-1.525 -0.363,-2.353 -0.204,-0.829 -0.53,-1.658 -0.975,-2.487 -0.448,-0.829 -1.078,-1.582 -1.895,-2.258 -0.816,-0.675 -1.862,-1.212 -3.138,-1.606 -1.276,-0.395 -2.844,-0.593 -4.705,-0.593 -1.838,0 -3.387,0.19 -4.65,0.574 -1.262,0.382 -2.302,0.898 -3.118,1.549 -0.817,0.65 -1.407,1.323 -1.853,2.101 -0.446,0.778 -0.778,1.543 -0.994,2.295 -0.218,0.753 -0.344,1.442 -0.383,2.067 -0.038,0.625 -0.058,1.091 -0.058,1.396 -0.026,0.869 -0.003,13.128 -0.003,13.128 0,0.459 -0.019,0.887 -0.058,1.283 -0.038,0.394 -0.095,0.751 -0.171,1.07 -0.077,0.32 -0.192,0.568 -0.345,0.746 -0.357,0.434 -0.797,0.747 -1.32,0.938 -0.523,0.191 -1.116,0.325 -1.779,0.402 v 0.382 h 11.402 v -0.382 c -0.358,-0.052 -0.74,-0.128 -1.147,-0.23 -0.409,-0.101 -0.779,-0.262 -1.111,-0.479 -0.331,-0.216 -0.612,-0.516 -0.841,-0.898 -0.229,-0.383 -0.361,-0.823 -0.415,-1.408 -0.049,-0.546 -0.066,-1.39 -0.066,-1.9 0,-1.637 0.017,-10.791 0.017,-10.791" />
      <path class="g2"
        d="m 282.7487,424.8391 c 0.025,-0.689 0.139,-1.174 0.345,-1.454 0.306,-0.434 0.755,-0.799 1.419,-1.03 0.663,-0.229 1.262,-0.369 1.799,-0.42 v -0.383 h -11.594 v 0.383 c 0.637,0.101 1.229,0.267 1.779,0.497 0.548,0.229 1.014,0.561 1.397,0.995 0.348,0.327 0.496,1.061 0.535,2.019 0,0 0.076,17.151 0.076,18.834 0,0.459 -0.019,0.886 -0.057,1.283 -0.038,0.394 -0.095,0.751 -0.172,1.071 -0.076,0.318 -0.191,0.567 -0.345,0.746 -0.357,0.434 -0.797,0.746 -1.32,0.938 -0.522,0.19 -1.115,0.324 -1.778,0.4 v 0.383 h 11.44 v -0.383 c -0.535,-0.076 -1.109,-0.216 -1.722,-0.419 -0.612,-0.206 -1.084,-0.613 -1.415,-1.225 -0.23,-0.435 -0.364,-0.983 -0.364,-1.646 0,-0.947 -0.023,-20.589 -0.023,-20.589" />
      <path class="g2"
        d="m 316.1465,433.9687 c -0.51,-0.167 -0.88,-0.427 -1.109,-0.784 -0.179,-0.281 -0.281,-0.715 -0.306,-1.302 -0.026,-0.587 -0.039,-1.173 -0.039,-1.759 v -5.587 c -0.179,-0.153 -0.619,-0.408 -1.32,-0.766 -0.702,-0.357 -1.557,-0.72 -2.563,-1.089 -1.009,-0.371 -2.124,-0.683 -3.349,-0.938 -1.224,-0.255 -2.448,-0.383 -3.673,-0.383 -2.424,0 -4.591,0.312 -6.505,0.937 -1.913,0.626 -3.526,1.543 -4.84,2.755 -1.314,1.212 -2.321,2.692 -3.023,4.439 -0.702,1.747 -1.052,3.705 -1.052,5.873 0,0.638 0.063,1.372 0.191,2.2 0.128,0.829 0.351,1.703 0.671,2.622 0.318,0.918 0.764,1.849 1.338,2.793 0.574,0.944 1.295,1.836 2.162,2.679 1.225,1.198 2.729,2.162 4.515,2.889 1.785,0.727 3.954,1.09 6.505,1.09 1.531,0 2.882,-0.134 4.055,-0.402 1.174,-0.267 2.162,-0.562 2.966,-0.88 0.803,-0.32 1.422,-0.613 1.856,-0.88 0.433,-0.268 0.676,-0.402 0.727,-0.402 0.051,0 0.191,0.153 0.421,0.459 0.23,0.307 0.509,0.676 0.842,1.11 h 0.344 v -8.342 h -0.459 c -0.281,1.149 -0.701,2.233 -1.263,3.253 -0.561,1.019 -1.161,1.862 -1.799,2.525 -0.816,0.867 -1.862,1.569 -3.137,2.104 -1.276,0.536 -2.704,0.804 -4.285,0.804 -1.684,0 -3.202,-0.377 -4.554,-1.129 -1.351,-0.752 -2.499,-1.76 -3.443,-3.023 -0.944,-1.262 -1.671,-2.716 -2.181,-4.362 -0.51,-1.644 -0.766,-3.373 -0.766,-5.184 0,-1.989 0.243,-3.808 0.727,-5.453 0.485,-1.645 1.187,-3.055 2.104,-4.227 0.919,-1.175 2.041,-2.086 3.368,-2.737 1.326,-0.65 2.844,-0.975 4.553,-0.975 1.224,0 2.366,0.211 3.425,0.631 1.058,0.421 1.894,1.103 2.506,2.047 0.204,0.332 0.357,0.919 0.46,1.761 0.101,0.841 0.153,1.708 0.153,2.602 0,0.892 -0.045,1.696 -0.134,2.41 -0.09,0.713 -0.351,1.301 -0.785,1.76 -0.586,0.663 -1.62,1.058 -3.1,1.187 v 0.382 h 11.212 v -0.382 c -0.434,-0.053 -0.906,-0.16 -1.416,-0.326" />
      <path class="g2"
        d="m 343.9513,422.6691 c -2.168,2.499 -3.439,3.946 -5.224,6.038 -1.786,2.092 -3.488,4.089 -5.109,5.989 -1.62,1.899 -3.207,3.755 -4.763,5.566 -1.556,1.812 -3.201,3.687 -4.936,5.626 v -16.147 c 0,-1.301 0.031,-2.475 0.095,-3.521 0.064,-1.046 0.223,-1.823 0.479,-2.334 0.28,-0.586 0.721,-1.027 1.32,-1.32 0.599,-0.294 1.421,-0.504 2.468,-0.631 v -0.383 h -9.413 v 0.383 c 0.613,0.076 1.225,0.235 1.836,0.478 0.613,0.242 1.097,0.645 1.455,1.205 0.356,0.535 0.721,1.549 0.823,2.596 0.101,1.045 0.124,1.784 0.124,3.445 0,0 -0.012,14.123 0,15.33 0.007,0.744 -0.255,1.346 -0.536,1.817 -0.281,0.473 -0.526,0.822 -0.908,1.09 -0.384,0.268 -0.799,0.459 -1.244,0.574 -0.447,0.115 -0.875,0.198 -1.282,0.249 v 0.382 h 7.767 l 18.137,-21.198 v 13.011 c 0,1.019 -0.013,1.996 -0.038,2.927 -0.026,0.93 -0.141,1.663 -0.345,2.2 -0.255,0.713 -0.707,1.294 -1.358,1.741 -0.65,0.445 -1.588,0.758 -2.812,0.937 v 0.382 h 9.489 v -0.382 c -0.944,-0.128 -1.703,-0.37 -2.277,-0.727 -0.574,-0.357 -1.115,-0.895 -1.42,-1.635 -0.18,-0.382 -0.294,-1.091 -0.345,-2.123 v -22.452 c 0,-0.755 -0.984,-0.112 -1.983,0.887" />
      <path class="g2"
        d="m 359.4262,435.9392 h 0.815 c 0.382,0 0.822,0.013 1.32,0.038 0.497,0.026 0.995,0.057 1.492,0.096 0.498,0.038 0.912,0.095 1.244,0.172 0.765,0.178 1.403,0.421 1.913,0.727 0.51,0.306 0.925,0.676 1.243,1.109 0.319,0.434 0.574,0.938 0.766,1.512 0.191,0.574 0.363,1.218 0.516,1.933 h 0.459 v -12.053 h -0.459 c -0.204,0.816 -0.516,1.658 -0.937,2.525 -0.421,0.867 -0.861,1.517 -1.32,1.951 -0.408,0.357 -0.9,0.65 -1.474,0.881 -0.574,0.229 -1.243,0.368 -2.008,0.421 -0.384,0.024 -0.702,0.044 -0.956,0.056 -0.256,0.013 -0.512,0.019 -0.766,0.019 h -0.766 -1.082 l 0.048,-10.444 c 0,-1.355 0.795,-2.164 2.221,-2.526 0.853,-0.217 1.811,-0.23 2.832,-0.23 0.432,0 0.987,0.013 1.664,0.038 0.676,0.025 1.383,0.089 2.123,0.192 0.816,0.101 1.57,0.299 2.258,0.592 0.688,0.294 1.351,0.709 1.989,1.244 0.638,0.535 1.257,1.192 1.856,1.97 0.599,0.779 1.219,1.716 1.857,2.813 l 0.419,-0.115 -1.912,-7.308 h -23.418 v 0.383 c 0.638,0.101 1.245,0.236 1.78,0.497 0.583,0.283 2.119,1.402 2.119,2.864 v 20.275 c 0,1.785 -1.141,2.603 -1.87,2.822 -0.43,0.13 -0.995,0.223 -1.684,0.326 v 0.382 h 21.121 l 2.602,-6.313 -0.382,-0.191 c -2.067,2.576 -4.006,4.31 -5.816,5.203 -0.435,0.205 -1.238,0.383 -2.412,0.536 -1.173,0.154 -2.6,0.23 -4.285,0.23 -0.535,0 -1.09,-0.02 -1.663,-0.058 -0.574,-0.038 -1.192,-0.083 -1.447,-0.134 z" />
      <path class="g2"
        d="m 194.0154,435.9392 h 0.815 c 0.382,0 0.822,0.013 1.32,0.038 0.497,0.026 0.995,0.057 1.492,0.096 0.498,0.038 0.912,0.095 1.244,0.172 0.765,0.178 1.403,0.421 1.913,0.727 0.51,0.306 0.924,0.676 1.243,1.109 0.319,0.434 0.574,0.938 0.766,1.512 0.191,0.574 0.363,1.218 0.517,1.933 h 0.458 v -12.053 h -0.458 c -0.205,0.816 -0.517,1.658 -0.938,2.525 -0.421,0.867 -0.861,1.517 -1.32,1.951 -0.408,0.357 -0.9,0.65 -1.474,0.881 -0.574,0.229 -1.243,0.368 -2.008,0.421 -0.384,0.024 -0.702,0.044 -0.956,0.056 -0.256,0.013 -0.511,0.019 -0.766,0.019 h -0.766 -1.082 l 0.048,-10.444 c 0,-1.355 0.794,-2.164 2.221,-2.526 0.853,-0.217 1.811,-0.23 2.832,-0.23 0.432,0 0.987,0.013 1.664,0.038 0.676,0.025 1.383,0.089 2.123,0.192 0.816,0.101 1.57,0.299 2.258,0.592 0.688,0.294 1.351,0.709 1.989,1.244 0.638,0.535 1.257,1.192 1.856,1.97 0.599,0.779 1.219,1.716 1.857,2.813 l 0.419,-0.115 -1.912,-7.308 h -23.418 v 0.383 c 0.638,0.101 1.245,0.236 1.78,0.497 0.583,0.283 2.119,1.402 2.119,2.864 v 20.275 c 0,1.785 -1.141,2.603 -1.87,2.822 -0.43,0.13 -0.995,0.223 -1.684,0.326 v 0.382 h 21.121 l 2.602,-6.313 -0.383,-0.191 c -2.066,2.576 -4.005,4.31 -5.815,5.203 -0.435,0.205 -1.238,0.383 -2.412,0.536 -1.173,0.154 -2.6,0.23 -4.285,0.23 -0.535,0 -1.09,-0.02 -1.664,-0.058 -0.573,-0.038 -1.191,-0.083 -1.446,-0.134 z" />
      <path class="g2"
        d="m 395.0293,427.1004 c 0,-0.741 0.019,-1.448 0.057,-2.123 0.038,-0.677 0.159,-1.156 0.363,-1.435 0.383,-0.562 0.925,-0.944 1.627,-1.149 0.701,-0.204 1.332,-0.357 1.894,-0.458 v -0.383 h -12.435 v 0.383 c 0.663,0.076 1.307,0.184 1.912,0.382 1.451,0.475 2.388,2.103 2.388,4.094 0,0 0.024,19.689 0.024,21.695 h -1.417 -1.109 c -0.332,0 -0.683,-0.006 -1.053,-0.019 -0.369,-0.013 -0.797,-0.018 -1.282,-0.018 -0.969,-0.027 -1.766,-0.141 -2.391,-0.345 -0.625,-0.204 -1.205,-0.562 -1.742,-1.072 -0.204,-0.178 -0.438,-0.446 -0.707,-0.803 -0.267,-0.357 -0.548,-0.746 -0.842,-1.167 -0.293,-0.421 -0.574,-0.875 -0.841,-1.359 -0.268,-0.485 -0.479,-0.956 -0.631,-1.415 l -0.345,0.114 1.148,7.27 c 0.587,-0.128 1.128,-0.228 1.626,-0.306 0.497,-0.076 1.218,-0.128 2.162,-0.153 0.969,-0.026 1.836,-0.045 2.602,-0.057 0.764,-0.013 1.505,-0.019 2.219,-0.019 h 2.182 2.563 2.526 c 0.764,0 1.504,0.006 2.218,0.019 0.714,0.012 1.454,0.025 2.22,0.038 0.765,0.013 1.632,0.019 2.602,0.019 0.841,0.025 1.536,0.096 2.085,0.211 0.548,0.115 1.115,0.262 1.703,0.44 l 1.224,-7.462 -0.344,-0.114 c -0.204,0.459 -0.448,0.937 -0.727,1.434 -0.282,0.498 -0.568,0.964 -0.861,1.397 -0.294,0.434 -0.581,0.835 -0.861,1.206 -0.281,0.369 -0.523,0.643 -0.727,0.822 -0.536,0.511 -1.116,0.848 -1.741,1.014 -0.625,0.166 -1.423,0.261 -2.392,0.288 -0.485,0 -0.905,0.005 -1.262,0.018 -0.358,0.013 -0.714,0.019 -1.072,0.019 h -1.109 -1.48 c 0,0 0.026,-19.273 0.026,-21.006" />
      <path class="g2"
        d="m 167.5368,449.0851 c 0.677,0 6.682,0.132 8.285,-0.166 4.203,-0.6 9.22,-3.8 9.22,-9.303 0,-4.015 -2.484,-8.181 -6.147,-9.46 -3.526,-1.231 -9.764,-0.991 -11.336,-1.04 0,0 -0.038,-1.292 -0.016,-2.054 0.07,-2.435 0.72,-3.962 1.756,-4.553 0.585,-0.334 1.403,-0.524 2.449,-0.574 v -0.382 h -12.244 v 0.382 c 0.638,0.102 1.249,0.255 1.836,0.459 1.453,0.507 1.972,2.717 2.047,4.679 v 17.227 c 0,0.471 -0.038,0.917 -0.076,1.339 -0.039,0.421 -0.102,0.803 -0.191,1.148 -0.09,0.344 -0.211,0.593 -0.364,0.746 -0.382,0.407 -0.875,0.681 -1.473,0.822 -0.6,0.14 -1.243,0.262 -1.933,0.363 v 0.384 h 0.919 z m 0.006,-0.784 c 0,0 0.016,-17.257 0.016,-18.467 3.011,-0.049 5.495,0.03 6.75,0.322 1.811,0.422 3.303,1.381 4.245,2.867 0.83,1.312 2.126,3.719 2.076,6.593 -0.08,4.66 -2.473,7.288 -4.555,8.23 -2.013,0.876 -7.171,0.629 -8.532,0.455" />
    </g>
    <path class="g2"
      d="m 169.1023,386.9774 c 0,-0.19 0.161,-0.352 0.351,-0.352 0.205,0 0.365,0.162 0.365,0.352 v 9.56 c 0,0.191 -0.16,0.352 -0.365,0.352 -0.19,0 -0.351,-0.161 -0.351,-0.352 v -4.429 h -5.282 v 4.429 c 0,0.191 -0.16,0.352 -0.365,0.352 -0.19,0 -0.351,-0.161 -0.351,-0.352 v -9.56 c 0,-0.19 0.161,-0.352 0.351,-0.352 0.205,0 0.365,0.162 0.365,0.352 v 4.429 h 5.282 z m 8.785,4.853 v 0 c 0.014,-2.874 2.184,-5.205 4.956,-5.205 2.743,0 4.897,2.331 4.911,5.205 -0.014,2.876 -2.168,5.205 -4.911,5.205 -2.772,0 -4.942,-2.329 -4.956,-5.205 m 0.716,0 v 0 c 0,2.539 1.908,4.474 4.24,4.474 2.259,0 4.166,-1.935 4.18,-4.474 -0.014,-2.508 -1.921,-4.488 -4.18,-4.488 -2.332,0 -4.24,1.98 -4.24,4.488 m 22.865,-4.574 c 0.161,-0.323 0.468,-0.469 0.659,-0.469 h 0.029 c 0.088,0 0.161,0.014 0.176,0.014 0.191,0.073 0.278,0.279 0.235,0.469 -0.059,0.162 -0.235,0.249 -0.396,0.235 -0.015,0.014 -0.088,0.073 -0.147,0.249 -0.073,0.22 -0.132,0.587 -0.132,1.188 0,1.159 -0.702,1.907 -1.376,2.288 -0.059,0.028 -0.103,0.043 -0.147,0.072 0.997,0.468 1.684,1.482 1.684,2.655 0,1.629 -1.303,2.932 -2.917,2.932 h -2.86 -0.044 -0.029 c -0.175,-0.015 -0.322,-0.175 -0.322,-0.351 v -9.561 c 0,-0.19 0.16,-0.352 0.351,-0.352 0.206,0 0.366,0.162 0.366,0.352 v 4.062 h 2.494 c 0.014,0 0.029,-0.014 0.073,-0.029 0.191,-0.029 0.734,-0.191 1.189,-0.513 0.455,-0.337 0.836,-0.807 0.836,-1.555 0,-0.865 0.103,-1.349 0.278,-1.686 m -0.116,6.701 c 0,-1.203 -0.968,-2.187 -2.157,-2.216 h -0.132 -2.465 v 4.431 h 2.538 c 1.218,0 2.216,-0.982 2.216,-2.215 m 14.809,-7.332 c 0.206,0 0.367,0.162 0.367,0.351 0,0.205 -0.161,0.366 -0.367,0.366 h -4.913 v 9.195 c 0,0.191 -0.16,0.352 -0.365,0.352 -0.191,0 -0.351,-0.161 -0.351,-0.352 v -9.561 c 0,-0.189 0.16,-0.351 0.351,-0.351 h 0.029 z m 6.866,5.205 v 0 c 0.015,-2.874 2.183,-5.205 4.956,-5.205 2.742,0 4.897,2.331 4.912,5.205 -0.015,2.876 -2.17,5.205 -4.912,5.205 -2.773,0 -4.941,-2.329 -4.956,-5.205 m 0.716,0 v 0 c 0,2.539 1.907,4.474 4.24,4.474 2.258,0 4.166,-1.935 4.18,-4.474 -0.014,-2.508 -1.922,-4.488 -4.18,-4.488 -2.333,0 -4.24,1.98 -4.24,4.488 m 25.081,-0.586 v -3.021 c -0.764,-0.559 -1.717,-0.881 -2.715,-0.881 -2.567,0 -4.62,2.01 -4.62,4.503 0,2.464 2.053,4.474 4.62,4.474 1.1,0 2.113,-0.382 2.86,-0.997 0.176,-0.117 0.395,-0.088 0.512,0.058 0.132,0.147 0.088,0.396 -0.043,0.499 -0.922,0.718 -2.053,1.156 -3.329,1.156 -2.948,0 -5.337,-2.33 -5.337,-5.19 0,-2.904 2.389,-5.205 5.337,-5.22 1.262,0 2.407,0.41 3.314,1.127 0.073,0.059 0.117,0.162 0.132,0.265 v 0.059 3.52 c 0,0.19 -0.147,0.351 -0.322,0.365 h -0.044 -3.168 c -0.205,0 -0.366,-0.16 -0.366,-0.365 0,-0.205 0.161,-0.352 0.366,-0.352 z m 9.62,-4.268 c 0,-0.189 0.146,-0.336 0.322,-0.351 h 0.029 0.044 5.235 c 0.205,0 0.352,0.162 0.352,0.351 0,0.205 -0.147,0.366 -0.352,0.366 h -4.913 v 4.049 h 4.297 c 0.19,0 0.352,0.162 0.352,0.351 0,0.206 -0.162,0.366 -0.352,0.366 h -4.297 v 4.064 h 4.913 c 0.205,0 0.352,0.162 0.352,0.366 0,0.191 -0.147,0.351 -0.352,0.351 h -5.25 -0.029 c -0.191,0 -0.351,-0.16 -0.351,-0.351 z m 19.651,0.28 c 0.16,-0.323 0.468,-0.469 0.659,-0.469 h 0.029 c 0.088,0 0.161,0.014 0.176,0.014 0.191,0.073 0.278,0.279 0.235,0.469 -0.059,0.162 -0.235,0.249 -0.396,0.235 -0.015,0.014 -0.088,0.073 -0.147,0.249 -0.073,0.22 -0.132,0.587 -0.132,1.188 0,1.159 -0.703,1.907 -1.377,2.288 -0.059,0.028 -0.103,0.043 -0.147,0.072 0.997,0.468 1.685,1.482 1.685,2.655 0,1.629 -1.304,2.932 -2.918,2.932 h -2.86 -0.044 -0.028 c -0.176,-0.015 -0.323,-0.175 -0.323,-0.351 v -9.561 c 0,-0.19 0.161,-0.352 0.351,-0.352 0.206,0 0.367,0.162 0.367,0.352 v 4.062 h 2.493 c 0.015,0 0.029,-0.014 0.074,-0.029 0.191,-0.029 0.734,-0.191 1.188,-0.513 0.455,-0.337 0.836,-0.807 0.836,-1.555 0,-0.865 0.103,-1.349 0.279,-1.686 m -0.118,6.701 c 0,-1.203 -0.967,-2.187 -2.155,-2.216 h -0.133 -2.464 v 4.431 h 2.537 c 1.218,0 2.215,-0.982 2.215,-2.215 m 16.118,-2.156 v 0 c 0,-2.86 2.389,-5.176 5.337,-5.176 1.261,0 2.42,0.424 3.314,1.113 0.162,0.117 0.191,0.381 0.045,0.513 -0.103,0.176 -0.338,0.205 -0.514,0.088 -0.763,-0.645 -1.76,-0.997 -2.845,-0.997 -2.566,0 -4.62,2.01 -4.62,4.459 0,2.509 2.054,4.518 4.62,4.518 1.085,0 2.082,-0.382 2.875,-0.997 0.146,-0.117 0.381,-0.103 0.498,0.073 0.132,0.132 0.103,0.381 -0.059,0.513 -0.894,0.689 -2.053,1.127 -3.314,1.127 -2.948,-0.014 -5.337,-2.314 -5.337,-5.234 m 22.423,-4.545 c 0.161,-0.323 0.468,-0.469 0.659,-0.469 h 0.03 c 0.088,0 0.161,0.014 0.176,0.014 0.19,0.073 0.278,0.279 0.234,0.469 -0.058,0.162 -0.234,0.249 -0.396,0.235 -0.014,0.014 -0.088,0.073 -0.146,0.249 -0.074,0.22 -0.132,0.587 -0.132,1.188 0,1.159 -0.703,1.907 -1.378,2.288 -0.058,0.028 -0.103,0.043 -0.147,0.072 0.998,0.468 1.686,1.482 1.686,2.655 0,1.629 -1.304,2.932 -2.917,2.932 h -2.861 -0.044 -0.029 c -0.175,-0.015 -0.322,-0.175 -0.322,-0.351 v -9.561 c 0,-0.19 0.161,-0.352 0.351,-0.352 0.205,0 0.366,0.162 0.366,0.352 v 4.062 h 2.495 c 0.014,0 0.029,-0.014 0.073,-0.029 0.191,-0.029 0.733,-0.191 1.188,-0.513 0.454,-0.337 0.836,-0.807 0.836,-1.555 0,-0.865 0.102,-1.349 0.278,-1.686 m -0.117,6.701 c 0,-1.203 -0.968,-2.187 -2.156,-2.216 h -0.132 -2.465 v 4.431 h 2.539 c 1.217,0 2.214,-0.982 2.214,-2.215 m 9.181,-6.981 v 9.562 c 0,0.191 0.161,0.351 0.351,0.351 h 0.029 5.25 c 0.205,0 0.352,-0.16 0.352,-0.351 0,-0.204 -0.147,-0.366 -0.352,-0.366 h -4.913 v -4.064 h 4.297 c 0.191,0 0.352,-0.16 0.352,-0.366 0,-0.189 -0.161,-0.351 -0.352,-0.351 h -4.297 v -4.049 h 4.913 c 0.205,0 0.352,-0.161 0.352,-0.366 0,-0.189 -0.147,-0.351 -0.352,-0.351 h -5.235 -0.044 -0.029 c -0.176,0.015 -0.322,0.162 -0.322,0.351 m 2.154,11.262 c 0.191,0 0.294,0.029 0.47,0.191 l 1.173,1.129 c 0.088,0.088 0.161,0.176 0.161,0.264 0,0.147 -0.337,0.337 -0.616,0.337 -0.176,0 -0.293,-0.088 -0.411,-0.264 l -0.909,-1.363 c -0.029,-0.044 -0.058,-0.102 -0.058,-0.161 0,-0.073 0.088,-0.132 0.19,-0.132 z m 18.347,-11.378 c 0.059,-0.147 0.205,-0.235 0.337,-0.235 0.044,-0.015 0.074,0 0.132,0 0.176,0.073 0.264,0.295 0.191,0.471 l -3.564,9.529 c -0.044,0.132 -0.191,0.22 -0.352,0.22 -0.146,0 -0.293,-0.088 -0.352,-0.22 l -3.563,-9.529 c -0.074,-0.176 0.029,-0.398 0.205,-0.471 0.044,0.015 0.102,0 0.132,0 0.146,0 0.278,0.088 0.337,0.235 l 0.909,2.42 h 4.679 z m -3.241,8.65 2.068,-5.514 h -4.151 z m 12.657,-8.533 c 0,-0.19 0.162,-0.352 0.351,-0.352 0.191,0 0.351,0.162 0.351,0.352 v 9.195 h 3.094 c 0.191,0 0.352,0.162 0.352,0.366 0,0.191 -0.161,0.351 -0.352,0.351 h -6.89 c -0.191,0 -0.352,-0.16 -0.352,-0.351 0,-0.204 0.161,-0.366 0.352,-0.366 h 3.094 z m 12.129,-10e-4 c 0,-0.189 0.146,-0.336 0.321,-0.351 h 0.029 0.045 5.234 c 0.205,0 0.352,0.162 0.352,0.351 0,0.205 -0.147,0.366 -0.352,0.366 h -4.913 v 4.049 h 4.297 c 0.191,0 0.352,0.162 0.352,0.351 0,0.206 -0.161,0.366 -0.352,0.366 h -4.297 v 4.064 h 4.913 c 0.205,0 0.352,0.162 0.352,0.366 0,0.191 -0.147,0.351 -0.352,0.351 h -5.249 -0.03 c -0.189,0 -0.35,-0.16 -0.35,-0.351 z m 13.991,3.797 v 0 c 0,-2.288 1.861,-4.148 4.134,-4.148 2.304,0 4.164,1.86 4.164,4.148 v 5.764 c 0,0.191 -0.16,0.352 -0.365,0.352 -0.19,0 -0.352,-0.161 -0.352,-0.352 v -5.764 c 0,-1.892 -1.54,-3.417 -3.447,-3.431 -1.877,0.014 -3.418,1.539 -3.418,3.431 v 5.764 c 0,0.191 -0.16,0.352 -0.366,0.352 -0.189,0 -0.35,-0.161 -0.35,-0.352 z m 22.217,-3.517 c 0.161,-0.323 0.468,-0.469 0.658,-0.469 h 0.03 c 0.088,0 0.161,0.014 0.176,0.014 0.19,0.073 0.278,0.279 0.235,0.469 -0.059,0.162 -0.235,0.249 -0.397,0.235 -0.014,0.014 -0.087,0.073 -0.146,0.249 -0.073,0.22 -0.131,0.587 -0.131,1.188 0,1.159 -0.703,1.907 -1.378,2.288 -0.058,0.028 -0.102,0.043 -0.146,0.072 0.997,0.468 1.684,1.482 1.684,2.655 0,1.629 -1.303,2.932 -2.917,2.932 h -2.86 -0.044 -0.029 c -0.175,-0.015 -0.322,-0.175 -0.322,-0.351 v -9.561 c 0,-0.19 0.161,-0.352 0.351,-0.352 0.205,0 0.365,0.162 0.365,0.352 v 4.062 h 2.495 c 0.014,0 0.029,-0.014 0.073,-0.029 0.191,-0.029 0.733,-0.191 1.189,-0.513 0.455,-0.337 0.836,-0.807 0.836,-1.555 0,-0.865 0.103,-1.349 0.278,-1.686 m -0.117,6.701 c 0,-1.203 -0.968,-2.187 -2.156,-2.216 h -0.133 -2.465 v 4.431 h 2.539 c 1.218,0 2.215,-0.982 2.215,-2.215" />
  </g>
</svg>