<svg width="373" height="207" viewBox="0 0 373 207" fill="none" xmlns="http://www.w3.org/2000/svg">
<path d="M141.194 36.4911C141.747 36.4911 142.309 36.4008 142.829 36.2793L161.587 100.024H161.603C163.687 107.136 174.046 112.541 186.514 112.541C198.989 112.541 209.324 107.138 211.431 100.024H211.44L230.182 36.3208C230.621 36.4111 231.109 36.4923 231.615 36.4923C235.261 36.4923 238.206 33.5467 238.206 29.8842C238.206 26.2632 235.269 23.3002 231.615 23.3002C227.985 23.3002 225.023 26.2548 225.023 29.8842C225.023 32.5296 226.553 34.7756 228.783 35.8324L207.053 82.4046L210.537 19.6533C210.586 19.6533 210.634 19.6533 210.683 19.6533C214.313 19.6533 217.284 16.7078 217.284 13.0693C217.284 9.43209 214.322 6.46129 210.683 6.46129C207.062 6.46129 204.082 9.43209 204.082 13.0693C204.082 16.0726 206.108 18.5875 208.843 19.3917L194.399 80.7204L187.424 13.1271C190.63 12.6555 193.072 9.91268 193.072 6.59181C193.072 2.96178 190.135 0 186.488 0C182.835 0 179.888 2.95456 179.888 6.59181C179.888 9.91268 182.361 12.6796 185.56 13.1271L178.61 80.5905L164.182 19.3845C166.957 18.6037 169.008 16.0798 169.008 13.0621C169.008 9.42487 166.046 6.45407 162.416 6.45407C158.763 6.45407 155.808 9.42487 155.808 13.0621C155.808 16.6922 158.763 19.6461 162.416 19.6461C162.449 19.6461 162.465 19.6461 162.507 19.6461L165.998 82.3631L144.221 35.741C146.353 34.6427 147.793 32.4364 147.793 29.865C147.793 26.2439 144.855 23.281 141.192 23.281C137.555 23.281 134.608 26.2355 134.608 29.865C134.609 33.5437 137.548 36.4911 141.194 36.4911ZM186.39 94.6523C197.8 94.6523 207.036 97.5738 207.036 101.154C207.036 104.751 197.799 107.648 186.39 107.648C174.982 107.648 165.735 104.759 165.735 101.154C165.737 97.5738 174.982 94.6523 186.39 94.6523Z" fill="#A37E2C"/>
<path d="M113.566 139.273C94.6529 139.273 79.3207 154.629 79.3207 173.046C79.3207 191.486 94.6523 206.826 113.566 206.826C132.462 206.826 147.786 191.478 147.786 173.046C147.786 154.629 132.461 139.273 113.566 139.273ZM127.79 192.561C126.733 194.147 125.405 195.564 123.851 196.702C121.32 198.728 118.432 199.9 115.364 200.006C114.786 200.071 114.175 200.136 113.566 200.136C112.931 200.136 112.337 200.071 111.735 200.006C108.667 199.893 105.803 198.729 103.265 196.702C101.71 195.562 100.376 194.154 99.3253 192.561C95.7693 187.646 93.5395 180.761 93.5395 173.11C93.5395 165.917 95.5251 159.39 98.6907 154.597C100.472 151.408 103.264 148.883 106.683 147.404C106.708 147.395 106.732 147.378 106.764 147.362C106.919 147.297 107.082 147.232 107.261 147.174C107.709 146.987 108.172 146.833 108.645 146.687C110.199 146.231 111.859 145.979 113.569 145.979C115.278 145.979 116.93 146.231 118.484 146.687C118.964 146.833 119.42 146.98 119.884 147.167C120.039 147.241 120.202 147.306 120.381 147.362C120.397 147.395 120.429 147.395 120.462 147.404C123.848 148.885 126.68 151.408 128.438 154.597C131.627 159.423 133.589 165.941 133.589 173.11C133.576 180.76 131.355 187.653 127.79 192.561Z" fill="black"/>
<path d="M215.598 180.084H210.862V189.605C210.715 195.309 206.068 199.899 200.331 199.899C200.306 199.899 200.283 199.89 200.266 199.89V199.906H180.255V146.41H189.427V141.649H156.355V146.41H165.534V199.91H156.355V204.678H215.598V204.662H215.647V189.101H215.598L215.598 180.084Z" fill="black"/>
<path d="M287.929 141.665H225.599V146.433H234.592V199.94H225.599V204.709H288.271V182.021H283.47V189.533C283.421 195.295 278.725 199.957 272.939 199.957C272.907 199.957 272.898 199.957 272.881 199.957H249.322V173.396H254.1C254.148 173.396 254.181 173.396 254.222 173.396H256.884C261.149 173.445 264.607 176.913 264.607 181.177C264.607 181.251 264.607 181.306 264.598 181.348H264.607V184.831H268.943V158.454H264.614V161.514H264.605C264.605 161.571 264.614 161.636 264.614 161.685C264.614 165.957 261.155 169.001 256.882 169.05H249.322V146.442H263.092C263.157 146.442 263.231 146.442 263.296 146.442H272.98C278.749 146.475 283.413 151.122 283.461 156.859V163.345H288.262V141.672H287.928L287.929 141.665Z" fill="black"/>
<path d="M369.682 200.135C365.109 200.021 364.034 198.613 360.502 194.544L339.645 168.584L353.446 152.105V152.114C357.148 147.875 358.15 146.409 362.918 146.335H366.523V141.73H341.085V146.335H346.667V146.352C346.683 146.352 346.683 146.352 346.683 146.352C347.888 146.352 348.855 147.304 348.855 148.5C348.855 148.981 348.7 149.404 348.455 149.762L336.216 164.329L326.613 152.374L324.612 149.835C324.31 149.468 324.107 148.996 324.107 148.492C324.107 147.304 325.076 146.344 326.263 146.328H331.74V141.722H299.929V146.328H301.443C305.496 146.515 306.667 147.898 309.858 151.561L328.323 174.55L311.697 194.39V194.349C307.979 198.604 306.969 200.037 302.193 200.127H298.312V204.717H325.515V200.127H318.811C317.623 200.127 316.639 199.168 316.639 197.946C316.639 197.442 316.827 196.978 317.136 196.611L331.899 178.976L344.163 194.268L346.034 196.595C346.327 196.978 346.531 197.441 346.531 197.947C346.531 199.143 345.556 200.128 344.35 200.128C344.35 200.128 344.35 200.128 344.334 200.128H338.451V204.717H372.752V200.128H369.684V200.135H369.682Z" fill="black"/>
<path d="M68.5208 199.835L64.3542 187.718C62.3934 182.339 61.0171 179.897 57.9742 177.122C55.9646 175.324 53.164 174.476 51.081 173.875C58.8361 172.646 64.7446 165.915 64.7446 157.828C64.7446 148.851 57.4773 141.569 48.5018 141.569C48.4116 141.569 48.3141 141.585 48.1926 141.585V141.569H0.146164V146.314H9.00923V199.869H0V204.638H32.8045V199.868H23.7465V174.135H30.7774C31.0054 174.144 31.2165 174.152 31.4367 174.168H32.8604C35.1064 174.249 37.0595 174.574 38.8014 175.071C40.4297 175.494 42.1626 176.047 43.3024 176.788C44.8489 177.797 46.5078 179.196 47.9658 181.687C48.34 182.354 48.6816 183.022 49.007 183.688C51.6849 188.733 53.2951 195.724 55.078 204.595H65.9175V204.611H75.675V199.833H68.5202L68.5208 199.835ZM39.1353 169.35H23.7784V146.279H39.1262C45.7343 146.532 51.007 151.146 51.007 157.811C51.007 164.477 45.7355 169.058 39.1353 169.35Z" fill="black"/>
</svg>
