<svg xmlns="http://www.w3.org/2000/svg" width="178" height="106" viewBox="0 0 178 106">
    <g fill="#1A1919" fill-rule="evenodd">
        <path d="M101.078 82.24c-5.94 0-10.756-7.162-10.756-15.993 0-8.832 4.816-15.993 10.756-15.993 5.942 0 10.756 7.161 10.756 15.993 0 8.831-4.814 15.993-10.756 15.993zm.065-35.359c-9.451 0-17.118 8.665-17.118 19.359 0 10.691 7.667 19.356 17.118 19.356 9.453 0 17.121-8.665 17.121-19.356 0-10.694-7.668-19.359-17.121-19.359zM43.544 80.408c0 .76.107 1.637.555 2.43.662 1.174 1.817 1.886 1.817 1.886H35.588s1.2-.871 1.715-1.812c.644-1.174.648-1.834.648-2.486l-.006-28.425c0-.755-.11-1.63-.556-2.423-.662-1.175-1.814-1.89-1.814-1.89h10.326s-1.201.875-1.716 1.815c-.644 1.174-.648 1.837-.648 2.487l.007 28.418M173.961 80.408c0 .76.109 1.637.555 2.43.663 1.174 1.817 1.886 1.817 1.886h-10.329s1.202-.871 1.716-1.812c.646-1.174.648-1.834.648-2.486l-.006-28.425c0-.755-.108-1.63-.555-2.423-.665-1.175-1.812-1.89-1.812-1.89h10.328s-1.203.875-1.722 1.815c-.642 1.174-.645 1.837-.645 2.487l.005 28.418M124.405 47.692s1.152.713 1.814 1.887c.445.794.553 1.67.553 2.426l.02 28.403c0 .652 0 1.314-.641 2.486-.52.946-1.721 1.817-1.721 1.817h8.941s-1.155-.715-1.814-1.889c-.447-.791-.556-1.666-.556-2.426L131 54.687l19.74 27.877s1.473 2.133 5.044 3.332l-.018-33.908c0-.651.004-1.313.647-2.485.515-.942 1.718-1.817 1.718-1.817h-8.923s1.157.716 1.82 1.89c.443.793.552 1.667.552 2.425l-.01 22.122-18.679-26.437-8.486.006M69.862 80.394c0 .756.107 1.631.557 2.424.661 1.176 1.814 1.887 1.814 1.887H61.907s1.2-.869 1.714-1.813c.645-1.173.649-1.836.649-2.488l-.008-28.969-5.776.002c-3.11 0-5.798 1.656-5.798 1.656l1.918-5.796c.442.195 1.198.389 2.318.389l22.074.009c1.676 0 2.476-.419 2.476-.419l-1.881 6.136s-1.247-1.98-3.542-1.98l-6.182.003-.007 28.959M8.696 100.234c0 2.363 1.18 4.807 3.799 4.807 2.617 0 3.797-2.444 3.797-4.807 0-2.359-1.18-4.803-3.797-4.803-2.619 0-3.799 2.444-3.799 4.803zm3.799-5.762c3.353 0 4.93 2.745 4.899 5.762-.031 3.418-1.691 5.766-4.899 5.766-3.209 0-4.87-2.348-4.902-5.766-.032-3.017 1.549-5.762 4.902-5.762zM22.202 94.664h5.303v.961h-4.202v3.972h4.01v.959h-4.01v5.252h-1.101V94.664M41.549 104.387c.656.414 1.422.654 2.458.654 1.373 0 2.508-.703 2.508-2.283 0-2.188-5.108-2.459-5.108-5.377 0-1.791 1.564-2.909 3.528-2.909.542 0 1.42.081 2.187.368l-.175 1.006c-.496-.272-1.279-.415-2.03-.415-1.148 0-2.409.479-2.409 1.916 0 2.235 5.109 2.25 5.109 5.504 0 2.254-1.933 3.149-3.656 3.149-1.086 0-1.932-.225-2.523-.481l.111-1.132M63.833 105.808h-1.308l-2.826-9.898h-.032l-2.873 9.898h-1.325l-3.193-11.144h1.134l2.745 9.898h.034l2.855-9.898h1.326l2.809 9.898h.031l2.794-9.898h1.055l-3.226 11.144M72.581 105.808h1.102V94.664h-1.102zM82.492 95.625h-3.288v-.961h7.677v.961h-3.287v10.183h-1.102V95.625M91.191 104.849l5.81-9.224h-5.667v-.961h6.832v.961l-5.78 9.224h5.972v.959h-7.167v-.959M104.357 94.664h5.462v.961h-4.36v3.972h4.135v.959h-4.135v4.293h4.551v.959h-5.653V94.664M117.623 99.597h1.168c1.292 0 2.777-.496 2.777-2.042 0-1.821-1.294-1.93-2.811-1.93h-1.134v3.972zm-1.101-4.933h2.874c1.979 0 3.272.848 3.272 2.891 0 1.435-1.1 2.394-2.473 2.568v.033c.891.113 1.081.592 1.434 1.34l1.902 4.312h-1.215l-1.612-3.769c-.639-1.438-1.117-1.483-2.172-1.483h-.909v5.252h-1.101V94.664zM129.421 94.664h1.099v10.185h4.47v.959h-5.569V94.664M144.214 95.721l-2.424 6.144h4.835l-2.411-6.144zm-.543-1.057h1.247l4.423 11.144h-1.15l-1.199-2.986h-5.617l-1.199 2.986h-1.069l4.564-11.144zM154.446 94.664h1.391l5.667 9.803h.03v-9.803h1.102v11.144h-1.483l-5.572-9.611h-.032v9.611h-1.103V94.664M170.076 104.849h.909c3.158 0 5.218-1.277 5.218-4.693 0-3.4-2.027-4.531-4.516-4.531h-1.611v9.224zm-1.101-10.185h2.76c3.99 0 5.568 2.299 5.568 5.555 0 4.039-2.694 5.589-6.384 5.589h-1.944V94.664zM95.172 19.756a4.533 4.533 0 1 1-6.997 5.086 4.533 4.533 0 1 1-6.998-5.086 4.532 4.532 0 1 1 2.671-8.227 4.534 4.534 0 0 1 4.327-5.889 4.533 4.533 0 0 1 4.327 5.889 4.534 4.534 0 1 1 2.67 8.227zm9.774-5.303a7.488 7.488 0 0 0-9.301-7.268 7.488 7.488 0 0 0-14.94 0 7.49 7.49 0 0 0-4.619 14.212 7.489 7.489 0 0 0 12.089 8.782 7.49 7.49 0 0 0 12.089-8.782 7.492 7.492 0 0 0 4.682-6.944zM17.174 80.394c0 .756.107 1.631.556 2.424.662 1.176 1.815 1.887 1.815 1.887H9.219s1.2-.869 1.714-1.813c.645-1.173.649-1.836.649-2.488l-.008-28.969-5.776.002C2.688 51.437 0 53.093 0 53.093l1.918-5.796c.442.195 1.198.389 2.318.389l22.074.009c1.676 0 2.476-.419 2.476-.419l-1.881 6.136s-1.247-1.98-3.542-1.98l-6.182.003-.007 28.959"/>
    </g>
</svg>
