<svg width="409" height="152" viewBox="0 0 409 152" fill="none" xmlns="http://www.w3.org/2000/svg">
<path d="M215.83 29.99L244.89 29.86C245.164 29.8613 245.43 29.9491 245.651 30.1107C245.872 30.2723 246.036 30.4995 246.12 30.7599C246.205 31.0204 246.205 31.3008 246.12 31.5612C246.036 31.8215 245.871 32.0486 245.65 32.21L222.07 49.18C221.845 49.3407 221.677 49.5689 221.591 49.8315C221.505 50.094 221.504 50.3772 221.59 50.64L230.7 78.23C230.787 78.4914 230.788 78.7737 230.704 79.0361C230.62 79.2985 230.455 79.5274 230.233 79.6898C230.01 79.8523 229.742 79.9398 229.466 79.9398C229.191 79.9399 228.923 79.8524 228.7 79.69L205.27 62.5C205.047 62.3359 204.777 62.2474 204.5 62.2474C204.223 62.2474 203.953 62.3359 203.73 62.5L180.3 79.69C180.077 79.8524 179.809 79.9399 179.534 79.9398C179.258 79.9398 178.99 79.8523 178.767 79.6898C178.545 79.5274 178.38 79.2985 178.296 79.0361C178.212 78.7737 178.213 78.4914 178.3 78.23L187.41 50.64C187.496 50.3772 187.495 50.094 187.409 49.8315C187.323 49.5689 187.155 49.3407 186.93 49.18L163.35 32.21C163.129 32.0486 162.964 31.8215 162.88 31.5612C162.795 31.3008 162.795 31.0204 162.88 30.7599C162.964 30.4995 163.128 30.2723 163.349 30.1107C163.57 29.9491 163.836 29.8613 164.11 29.86L193.17 29.99C193.447 29.99 193.716 29.9017 193.939 29.738C194.162 29.5744 194.327 29.3439 194.41 29.08L203.26 1.40998C203.343 1.14618 203.508 0.915738 203.731 0.752153C203.954 0.588569 204.223 0.500366 204.5 0.500366C204.777 0.500366 205.046 0.588569 205.269 0.752153C205.492 0.915738 205.657 1.14618 205.74 1.40998L214.59 29.08C214.673 29.3439 214.838 29.5744 215.061 29.738C215.284 29.9017 215.553 29.99 215.83 29.99ZM210.62 36.14C210.554 36.1414 210.49 36.1218 210.436 36.084C210.382 36.0463 210.341 35.9923 210.32 35.93L204.83 18.54C204.813 18.4736 204.774 18.4148 204.72 18.3728C204.665 18.3309 204.599 18.3081 204.53 18.3081C204.461 18.3081 204.395 18.3309 204.34 18.3728C204.286 18.4148 204.247 18.4736 204.23 18.54L198.74 35.93C198.719 35.9923 198.678 36.0463 198.624 36.084C198.57 36.1218 198.506 36.1414 198.44 36.14L180.2 35.99C180.132 35.9875 180.065 36.0073 180.01 36.0464C179.954 36.0855 179.913 36.1417 179.893 36.2064C179.872 36.2711 179.874 36.3408 179.897 36.4047C179.92 36.4685 179.963 36.5231 180.02 36.56L194.86 47.16C194.915 47.1977 194.956 47.2521 194.978 47.3151C195 47.3782 195 47.4465 194.98 47.51L189.2 64.81C189.181 64.8722 189.182 64.9389 189.203 65.0005C189.224 65.062 189.264 65.1154 189.317 65.153C189.371 65.1906 189.434 65.2106 189.499 65.21C189.564 65.2095 189.628 65.1885 189.68 65.15L204.35 54.32C204.403 54.2825 204.465 54.2624 204.53 54.2624C204.595 54.2624 204.657 54.2825 204.71 54.32L219.38 65.15C219.432 65.1885 219.496 65.2095 219.561 65.21C219.626 65.2106 219.689 65.1906 219.743 65.153C219.796 65.1154 219.836 65.062 219.857 65.0005C219.878 64.9389 219.879 64.8722 219.86 64.81L214.08 47.51C214.06 47.4465 214.06 47.3782 214.082 47.3151C214.104 47.2521 214.145 47.1977 214.2 47.16L229.04 36.56C229.097 36.5231 229.14 36.4685 229.163 36.4047C229.186 36.3408 229.188 36.2711 229.167 36.2064C229.147 36.1417 229.106 36.0855 229.05 36.0464C228.995 36.0073 228.928 35.9875 228.86 35.99L210.62 36.14Z" fill="black"/>
<path d="M295.02 110.25H272.49C272.36 110.25 272.235 110.198 272.144 110.106C272.052 110.015 272 109.89 272 109.76V102.66C272 102.53 272.052 102.405 272.144 102.314C272.235 102.222 272.36 102.17 272.49 102.17L329.51 101.95C329.64 101.95 329.765 102.002 329.856 102.094C329.948 102.185 330 102.31 330 102.44V109.76C330 109.89 329.948 110.015 329.856 110.106C329.765 110.198 329.64 110.25 329.51 110.25H306.93C306.8 110.25 306.675 110.302 306.584 110.394C306.492 110.485 306.44 110.61 306.44 110.74L306.66 150.76C306.66 150.89 306.608 151.015 306.516 151.106C306.425 151.198 306.3 151.25 306.17 151.25H295.65C295.52 151.25 295.395 151.198 295.304 151.106C295.212 151.015 295.16 150.89 295.16 150.76L295.51 110.74C295.51 110.61 295.458 110.485 295.366 110.394C295.275 110.302 295.15 110.25 295.02 110.25ZM359.92 121.75H396.83C396.941 121.75 397.048 121.706 397.127 121.627C397.206 121.548 397.25 121.441 397.25 121.33V102.42C397.25 102.309 397.294 102.202 397.373 102.123C397.452 102.044 397.559 102 397.67 102H408.08C408.191 102 408.298 102.044 408.377 102.123C408.456 102.202 408.5 102.309 408.5 102.42V150.83C408.5 150.941 408.456 151.048 408.377 151.127C408.298 151.206 408.191 151.25 408.08 151.25H397.67C397.559 151.25 397.452 151.206 397.373 151.127C397.294 151.048 397.25 150.941 397.25 150.83V130.42C397.25 130.309 397.206 130.202 397.127 130.123C397.048 130.044 396.941 130 396.83 130H359.92C359.809 130 359.702 130.044 359.623 130.123C359.544 130.202 359.5 130.309 359.5 130.42V150.83C359.5 150.941 359.456 151.048 359.377 151.127C359.298 151.206 359.191 151.25 359.08 151.25H348.67C348.615 151.25 348.56 151.239 348.509 151.218C348.458 151.197 348.412 151.166 348.373 151.127C348.334 151.088 348.303 151.042 348.282 150.991C348.261 150.94 348.25 150.885 348.25 150.83V102.42C348.25 102.365 348.261 102.31 348.282 102.259C348.303 102.208 348.334 102.162 348.373 102.123C348.412 102.084 348.458 102.053 348.509 102.032C348.56 102.011 348.615 102 348.67 102H359.08C359.191 102 359.298 102.044 359.377 102.123C359.456 102.202 359.5 102.309 359.5 102.42V121.33C359.5 121.441 359.544 121.548 359.623 121.627C359.702 121.706 359.809 121.75 359.92 121.75Z" fill="black"/>
<path d="M17.19 143.28L58.92 143.13C59.0022 143.13 59.0811 143.163 59.1392 143.221C59.1973 143.279 59.23 143.358 59.23 143.44L59.28 150.94C59.28 150.981 59.272 151.021 59.2564 151.059C59.2408 151.096 59.218 151.13 59.1892 151.159C59.1604 151.188 59.1262 151.211 59.0886 151.226C59.051 151.242 59.0107 151.25 58.97 151.25H0.809998C0.769288 151.25 0.728987 151.242 0.691376 151.226C0.653765 151.211 0.619576 151.188 0.59079 151.159C0.562004 151.13 0.539169 151.096 0.52359 151.059C0.508011 151.021 0.5 150.981 0.5 150.94V143.6C0.500746 143.554 0.511914 143.508 0.532684 143.466C0.553455 143.425 0.583292 143.388 0.619995 143.36L41.88 110.8C41.9291 110.76 41.9648 110.706 41.9821 110.645C41.9994 110.584 41.9976 110.519 41.9769 110.459C41.9562 110.399 41.9175 110.347 41.8662 110.309C41.8149 110.272 41.7534 110.251 41.69 110.25H3.81C3.72778 110.25 3.64893 110.217 3.59079 110.159C3.53265 110.101 3.5 110.022 3.5 109.94V102.44C3.5 102.358 3.53265 102.279 3.59079 102.221C3.64893 102.163 3.72778 102.13 3.81 102.13L58.25 102.16C58.3322 102.16 58.4111 102.193 58.4692 102.251C58.5273 102.309 58.56 102.388 58.56 102.47L58.47 109.73C58.4693 109.776 58.4581 109.822 58.4373 109.864C58.4165 109.905 58.3867 109.942 58.35 109.97L16.99 142.72C16.9359 142.759 16.8961 142.815 16.8764 142.879C16.8567 142.943 16.8582 143.012 16.8807 143.075C16.9032 143.138 16.9455 143.192 17.0012 143.229C17.057 143.266 17.1232 143.284 17.19 143.28ZM93.33 143.12L131.92 143.27C131.963 143.27 132.006 143.279 132.046 143.295C132.086 143.312 132.123 143.336 132.153 143.367C132.184 143.397 132.208 143.434 132.225 143.474C132.241 143.514 132.25 143.557 132.25 143.6V150.92C132.25 150.963 132.241 151.006 132.225 151.046C132.208 151.086 132.184 151.123 132.153 151.153C132.123 151.184 132.086 151.208 132.046 151.225C132.006 151.241 131.963 151.25 131.92 151.25H82.08C81.9925 151.25 81.9085 151.215 81.8466 151.153C81.7848 151.091 81.75 151.008 81.75 150.92V102.33C81.75 102.242 81.7848 102.159 81.8466 102.097C81.9085 102.035 81.9925 102 82.08 102H130.92C131.008 102 131.091 102.035 131.153 102.097C131.215 102.159 131.25 102.242 131.25 102.33V109.92C131.25 110.008 131.215 110.091 131.153 110.153C131.091 110.215 131.008 110.25 130.92 110.25H93.33C93.2425 110.25 93.1585 110.285 93.0966 110.347C93.0348 110.409 93 110.492 93 110.58V121.42C93 121.508 93.0348 121.591 93.0966 121.653C93.1585 121.715 93.2425 121.75 93.33 121.75H129.67C129.758 121.75 129.841 121.785 129.903 121.847C129.965 121.909 130 121.992 130 122.08V129.67C130 129.758 129.965 129.841 129.903 129.903C129.841 129.965 129.758 130 129.67 130H93.33C93.2867 130 93.2437 130.009 93.2037 130.025C93.1637 130.042 93.1273 130.066 93.0966 130.097C93.066 130.127 93.0417 130.164 93.0251 130.204C93.0085 130.244 93 130.287 93 130.33V142.79C93 142.878 93.0348 142.961 93.0966 143.023C93.1585 143.085 93.2425 143.12 93.33 143.12ZM165 115.96V150.9C165 150.993 164.963 151.082 164.897 151.147C164.832 151.213 164.743 151.25 164.65 151.25H154.14C154.047 151.25 153.958 151.213 153.893 151.147C153.827 151.082 153.79 150.993 153.79 150.9L153.67 102.31C153.67 102.217 153.707 102.128 153.773 102.063C153.838 101.997 153.927 101.96 154.02 101.96L165.63 102.08C165.719 102.079 165.804 102.111 165.87 102.17L184.66 119.94L203.45 137.71C203.499 137.757 203.561 137.788 203.628 137.8C203.695 137.812 203.764 137.804 203.827 137.778C203.889 137.751 203.943 137.707 203.981 137.651C204.018 137.594 204.039 137.528 204.04 137.46L203.98 102.6C203.98 102.509 204.015 102.421 204.079 102.356C204.142 102.291 204.229 102.253 204.32 102.25L214.85 101.91C214.897 101.909 214.943 101.917 214.987 101.934C215.031 101.951 215.07 101.976 215.104 102.009C215.138 102.042 215.164 102.081 215.182 102.124C215.201 102.167 215.21 102.213 215.21 102.26L215.33 150.9C215.33 150.993 215.293 151.082 215.227 151.147C215.162 151.213 215.073 151.25 214.98 151.25H203.28C203.19 151.249 203.104 151.213 203.04 151.15L165.59 115.71C165.541 115.663 165.479 115.632 165.412 115.62C165.345 115.608 165.276 115.616 165.213 115.642C165.151 115.669 165.097 115.713 165.059 115.769C165.022 115.826 165.001 115.892 165 115.96Z" fill="black"/>
<path d="M252.94 102.01H242.32C242.149 102.01 242.01 102.149 242.01 102.32V150.94C242.01 151.111 242.149 151.25 242.32 151.25H252.94C253.111 151.25 253.25 151.111 253.25 150.94V102.32C253.25 102.149 253.111 102.01 252.94 102.01Z" fill="black"/>
</svg>
