<svg width="409" height="144" viewBox="0 0 409 144" fill="none" xmlns="http://www.w3.org/2000/svg">
<path d="M205 0L213.532 26.2574H241.14L218.804 42.4853L227.336 68.7426L205 52.5147L182.664 68.7426L191.196 42.4853L168.86 26.2574H196.468L205 0Z" fill="black"/>
<path d="M295.02 102.25H272.49C272.36 102.25 272.235 102.198 272.144 102.106C272.052 102.015 272 101.89 272 101.76V94.66C272 94.53 272.052 94.4054 272.144 94.3135C272.235 94.2216 272.36 94.17 272.49 94.17L329.51 93.95C329.64 93.95 329.765 94.0016 329.856 94.0935C329.948 94.1854 330 94.31 330 94.44V101.76C330 101.89 329.948 102.015 329.856 102.106C329.765 102.198 329.64 102.25 329.51 102.25H306.93C306.8 102.25 306.675 102.302 306.584 102.394C306.492 102.485 306.44 102.61 306.44 102.74L306.66 142.76C306.66 142.89 306.608 143.015 306.516 143.106C306.425 143.198 306.3 143.25 306.17 143.25H295.65C295.52 143.25 295.395 143.198 295.304 143.106C295.212 143.015 295.16 142.89 295.16 142.76L295.51 102.74C295.51 102.61 295.458 102.485 295.366 102.394C295.275 102.302 295.15 102.25 295.02 102.25ZM359.92 113.75H396.83C396.941 113.75 397.048 113.706 397.127 113.627C397.206 113.548 397.25 113.441 397.25 113.33V94.42C397.25 94.3086 397.294 94.2018 397.373 94.123C397.452 94.0443 397.559 94 397.67 94H408.08C408.191 94 408.298 94.0443 408.377 94.123C408.456 94.2018 408.5 94.3086 408.5 94.42V142.83C408.5 142.941 408.456 143.048 408.377 143.127C408.298 143.206 408.191 143.25 408.08 143.25H397.67C397.559 143.25 397.452 143.206 397.373 143.127C397.294 143.048 397.25 142.941 397.25 142.83V122.42C397.25 122.309 397.206 122.202 397.127 122.123C397.048 122.044 396.941 122 396.83 122H359.92C359.809 122 359.702 122.044 359.623 122.123C359.544 122.202 359.5 122.309 359.5 122.42V142.83C359.5 142.941 359.456 143.048 359.377 143.127C359.298 143.206 359.191 143.25 359.08 143.25H348.67C348.615 143.25 348.56 143.239 348.509 143.218C348.458 143.197 348.412 143.166 348.373 143.127C348.334 143.088 348.303 143.042 348.282 142.991C348.261 142.94 348.25 142.885 348.25 142.83V94.42C348.25 94.3648 348.261 94.3102 348.282 94.2593C348.303 94.2083 348.334 94.162 348.373 94.123C348.412 94.084 348.458 94.0531 348.509 94.032C348.56 94.0109 348.615 94 348.67 94H359.08C359.191 94 359.298 94.0443 359.377 94.123C359.456 94.2018 359.5 94.3086 359.5 94.42V113.33C359.5 113.441 359.544 113.548 359.623 113.627C359.702 113.706 359.809 113.75 359.92 113.75Z" fill="black"/>
<path d="M17.19 135.28L58.92 135.13C59.0022 135.13 59.0811 135.163 59.1392 135.221C59.1973 135.279 59.23 135.358 59.23 135.44L59.28 142.94C59.28 142.981 59.272 143.021 59.2564 143.059C59.2408 143.096 59.218 143.13 59.1892 143.159C59.1604 143.188 59.1262 143.211 59.0886 143.226C59.051 143.242 59.0107 143.25 58.97 143.25H0.809998C0.769288 143.25 0.728987 143.242 0.691376 143.226C0.653765 143.211 0.619576 143.188 0.59079 143.159C0.562004 143.13 0.539169 143.096 0.52359 143.059C0.508011 143.021 0.5 142.981 0.5 142.94V135.6C0.500746 135.554 0.511914 135.508 0.532684 135.466C0.553455 135.425 0.583292 135.388 0.619995 135.36L41.88 102.8C41.9291 102.76 41.9648 102.706 41.9821 102.645C41.9994 102.584 41.9976 102.519 41.9769 102.459C41.9562 102.399 41.9175 102.347 41.8662 102.309C41.8149 102.272 41.7534 102.251 41.69 102.25H3.81C3.72778 102.25 3.64893 102.217 3.59079 102.159C3.53265 102.101 3.5 102.022 3.5 101.94V94.44C3.5 94.3578 3.53265 94.2789 3.59079 94.2208C3.64893 94.1627 3.72778 94.13 3.81 94.13L58.25 94.16C58.3322 94.16 58.4111 94.1926 58.4692 94.2508C58.5273 94.3089 58.56 94.3878 58.56 94.47L58.47 101.73C58.4693 101.776 58.4581 101.822 58.4373 101.864C58.4165 101.905 58.3867 101.942 58.35 101.97L16.99 134.72C16.9359 134.759 16.8961 134.815 16.8764 134.879C16.8567 134.943 16.8582 135.012 16.8807 135.075C16.9032 135.138 16.9455 135.192 17.0012 135.229C17.057 135.266 17.1232 135.284 17.19 135.28ZM93.33 135.12L131.92 135.27C131.963 135.27 132.006 135.279 132.046 135.295C132.086 135.312 132.123 135.336 132.153 135.367C132.184 135.397 132.208 135.434 132.225 135.474C132.241 135.514 132.25 135.557 132.25 135.6V142.92C132.25 142.963 132.241 143.006 132.225 143.046C132.208 143.086 132.184 143.123 132.153 143.153C132.123 143.184 132.086 143.208 132.046 143.225C132.006 143.241 131.963 143.25 131.92 143.25H82.08C81.9925 143.25 81.9085 143.215 81.8466 143.153C81.7848 143.091 81.75 143.008 81.75 142.92V94.33C81.75 94.2425 81.7848 94.1585 81.8466 94.0966C81.9085 94.0348 81.9925 94 82.08 94H130.92C131.008 94 131.091 94.0348 131.153 94.0966C131.215 94.1585 131.25 94.2425 131.25 94.33V101.92C131.25 102.008 131.215 102.091 131.153 102.153C131.091 102.215 131.008 102.25 130.92 102.25H93.33C93.2425 102.25 93.1585 102.285 93.0966 102.347C93.0348 102.409 93 102.492 93 102.58V113.42C93 113.508 93.0348 113.591 93.0966 113.653C93.1585 113.715 93.2425 113.75 93.33 113.75H129.67C129.758 113.75 129.841 113.785 129.903 113.847C129.965 113.909 130 113.992 130 114.08V121.67C130 121.758 129.965 121.841 129.903 121.903C129.841 121.965 129.758 122 129.67 122H93.33C93.2867 122 93.2437 122.009 93.2037 122.025C93.1637 122.042 93.1273 122.066 93.0966 122.097C93.066 122.127 93.0417 122.164 93.0251 122.204C93.0085 122.244 93 122.287 93 122.33V134.79C93 134.877 93.0348 134.961 93.0966 135.023C93.1585 135.085 93.2425 135.12 93.33 135.12ZM165 107.96V142.9C165 142.993 164.963 143.082 164.897 143.147C164.832 143.213 164.743 143.25 164.65 143.25H154.14C154.047 143.25 153.958 143.213 153.893 143.147C153.827 143.082 153.79 142.993 153.79 142.9L153.67 94.31C153.67 94.2172 153.707 94.1281 153.773 94.0625C153.838 93.9969 153.927 93.96 154.02 93.96L165.63 94.08C165.719 94.0786 165.804 94.1107 165.87 94.17L203.45 129.71C203.499 129.757 203.561 129.788 203.628 129.8C203.695 129.812 203.764 129.804 203.827 129.778C203.889 129.751 203.943 129.707 203.981 129.65C204.018 129.594 204.039 129.528 204.04 129.46L203.98 94.6C203.98 94.5089 204.015 94.4213 204.079 94.356C204.142 94.2906 204.229 94.2526 204.32 94.25L214.85 93.91C214.897 93.9087 214.943 93.9167 214.987 93.9337C215.031 93.9507 215.07 93.9763 215.104 94.0089C215.138 94.0415 215.164 94.0806 215.182 94.1237C215.201 94.1668 215.21 94.2132 215.21 94.26L215.33 142.9C215.33 142.993 215.293 143.082 215.227 143.147C215.162 143.213 215.073 143.25 214.98 143.25H203.28C203.19 143.249 203.104 143.213 203.04 143.15L165.59 107.71C165.541 107.663 165.479 107.632 165.412 107.62C165.345 107.608 165.276 107.616 165.213 107.642C165.151 107.669 165.097 107.713 165.059 107.769C165.022 107.826 165.001 107.892 165 107.96Z" fill="black"/>
<path d="M252.94 94.01H242.32C242.149 94.01 242.01 94.1488 242.01 94.32V142.94C242.01 143.111 242.149 143.25 242.32 143.25H252.94C253.111 143.25 253.25 143.111 253.25 142.94V94.32C253.25 94.1488 253.111 94.01 252.94 94.01Z" fill="black"/>
</svg>
